<svg width="179" height="55" viewBox="0 0 179 55" fill="none" xmlns="http://www.w3.org/2000/svg">
<path d="M0 3.28358C0 1.47011 1.491 0 3.33023 0H76.5954C78.4346 0 79.9256 1.47011 79.9256 3.28358V41.5529C79.9256 43.3664 78.4346 44.8365 76.5954 44.8365H29.9127C29.2284 44.8365 28.5607 45.0444 28.0004 45.4319L15.2319 54.2621C12.5032 56.1493 8.96657 53.3515 10.2435 50.3159L10.6379 49.3781C11.5475 47.2159 9.93583 44.8365 7.56181 44.8365H3.33023C1.491 44.8365 0 43.3664 0 41.5529V3.28358Z" fill="#673692"/>
<path d="M29.8222 21.3695C30.8812 21.7833 31.7404 22.4137 32.3998 23.2609C33.0792 24.108 33.4189 25.2015 33.4189 26.5412C33.4189 28.8857 32.7395 30.5209 31.3808 31.4468C30.022 32.3728 28.4035 32.8358 26.5253 32.8358H19.0622C18.5427 32.8358 18.1031 32.6683 17.7435 32.3334C17.4038 31.9788 17.2339 31.5454 17.2339 31.0331V13.9519C17.2339 13.4397 17.4038 13.0161 17.7435 12.6812C18.1031 12.3265 18.5427 12.1492 19.0622 12.1492H26.6152C30.4117 12.1492 32.3099 13.9027 32.3099 17.4095C32.3099 18.2961 32.0901 19.0842 31.6505 19.7737C31.2309 20.4436 30.6215 20.9755 29.8222 21.3695ZM28.4135 18.0597C28.4135 17.2519 28.2037 16.651 27.7841 16.257C27.3845 15.8433 26.815 15.6364 26.0757 15.6364H21.1303V20.2465H26.1656C26.7651 20.2465 27.2846 20.0495 27.7242 19.6555C28.1838 19.2615 28.4135 18.7295 28.4135 18.0597ZM26.5253 29.4373C27.4644 29.4373 28.1937 29.191 28.7133 28.6985C29.2528 28.2059 29.5225 27.4868 29.5225 26.5412C29.5225 25.3788 29.2128 24.6203 28.5934 24.2656C27.9739 23.911 27.2147 23.7337 26.3155 23.7337H21.1303V29.4373H26.5253ZM50.7798 24.5612C50.7598 25.034 50.57 25.4182 50.2103 25.7137C49.8507 26.0092 49.431 26.157 48.9515 26.157H39.0607C39.3005 27.3194 39.85 28.2355 40.7092 28.9054C41.5684 29.5555 42.5375 29.8806 43.6165 29.8806C44.4357 29.8806 45.0751 29.8116 45.5347 29.6737C45.9942 29.5161 46.3539 29.3585 46.6137 29.2009C46.8934 29.0236 47.0832 28.9054 47.1831 28.8462C47.5428 28.6689 47.8825 28.5803 48.2022 28.5803C48.6218 28.5803 48.9815 28.728 49.2812 29.0236C49.5809 29.3191 49.7308 29.6639 49.7308 30.0579C49.7308 30.5898 49.451 31.0725 48.8916 31.5059C48.3321 31.9591 47.5828 32.3433 46.6436 32.6585C45.7045 32.9737 44.7554 33.1313 43.7963 33.1313C42.1179 33.1313 40.6492 32.7865 39.3904 32.097C38.1516 31.4074 37.1924 30.4618 36.5131 29.26C35.8337 28.0385 35.494 26.6692 35.494 25.1522C35.494 23.4579 35.8537 21.9704 36.573 20.6898C37.2924 19.4092 38.2415 18.434 39.4204 17.7642C40.5993 17.0746 41.8581 16.7298 43.1969 16.7298C44.5156 16.7298 45.7545 17.0845 46.9134 17.7937C48.0923 18.503 49.0314 19.4585 49.7308 20.6603C50.4301 21.8621 50.7798 23.1624 50.7798 24.5612ZM43.1969 19.9806C40.879 19.9806 39.5103 21.0543 39.0907 23.2018H46.9434V22.9949C46.8634 22.1674 46.4538 21.4582 45.7145 20.8671C44.9752 20.2761 44.136 19.9806 43.1969 19.9806ZM61.3605 29.4964C61.6403 29.4964 61.89 29.6343 62.1098 29.9101C62.3496 30.1662 62.4695 30.511 62.4695 30.9445C62.4695 31.4764 62.1698 31.9295 61.5703 32.3039C60.9909 32.6585 60.3315 32.8358 59.5922 32.8358C58.3533 32.8358 57.3043 32.5797 56.4451 32.0674C55.6059 31.5355 55.1863 30.4224 55.1863 28.728V20.5716H53.8076C53.328 20.5716 52.9284 20.414 52.6087 20.0988C52.289 19.7836 52.1291 19.3895 52.1291 18.9167C52.1291 18.4636 52.289 18.0892 52.6087 17.7937C52.9284 17.4785 53.328 17.3209 53.8076 17.3209H55.1863V15.4295C55.1863 14.9173 55.3561 14.4937 55.6958 14.1588C56.0555 13.8042 56.4951 13.6268 57.0146 13.6268C57.5141 13.6268 57.9337 13.8042 58.2734 14.1588C58.6131 14.4937 58.7829 14.9173 58.7829 15.4295V17.3209H60.9109C61.3905 17.3209 61.7901 17.4785 62.1098 17.7937C62.4295 18.1089 62.5894 18.503 62.5894 18.9758C62.5894 19.4289 62.4295 19.8131 62.1098 20.1283C61.7901 20.4239 61.3905 20.5716 60.9109 20.5716H58.7829V28.5803C58.7829 28.994 58.8928 29.2994 59.1126 29.4964C59.3324 29.6737 59.6321 29.7624 60.0118 29.7624C60.1716 29.7624 60.3914 29.723 60.6712 29.6442C60.9109 29.5457 61.1407 29.4964 61.3605 29.4964Z" fill="white"/>
<path d="M103.624 29.9397C103.883 30.0973 104.083 30.3042 104.223 30.5603C104.383 30.8164 104.463 31.0824 104.463 31.3582C104.463 31.7128 104.343 32.0379 104.103 32.3334C103.803 32.6881 103.344 32.8654 102.724 32.8654C102.245 32.8654 101.805 32.757 101.406 32.5403C99.9669 31.7325 99.2476 30.0875 99.2476 27.6051C99.2476 26.8958 99.0078 26.3343 98.5283 25.9206C98.0687 25.5069 97.3993 25.3 96.5201 25.3H90.9153V31.0331C90.9153 31.5651 90.7655 31.9985 90.4658 32.3334C90.186 32.6684 89.8064 32.8358 89.3268 32.8358C88.7474 32.8358 88.2378 32.6684 87.7982 32.3334C87.3786 31.9788 87.1688 31.5454 87.1688 31.0331V13.9519C87.1688 13.4397 87.3387 13.0161 87.6783 12.6812C88.038 12.3266 88.4776 12.1493 88.9971 12.1493H97.6291C98.6681 12.1493 99.6472 12.4251 100.566 12.9767C101.485 13.5284 102.215 14.2869 102.754 15.2522C103.314 16.2176 103.594 17.3012 103.594 18.503C103.594 19.4881 103.324 20.4534 102.784 21.3991C102.245 22.3251 101.545 23.0639 100.686 23.6155C101.945 24.4824 102.634 25.6448 102.754 27.1027C102.814 27.4179 102.844 27.7233 102.844 28.0188C102.924 28.6296 103.004 29.0728 103.084 29.3487C103.164 29.6048 103.344 29.8018 103.624 29.9397ZM97.4792 22.2561C97.8389 22.2561 98.1886 22.0887 98.5283 21.7537C98.8679 21.4188 99.1477 20.9755 99.3675 20.4239C99.5873 19.8525 99.6972 19.2418 99.6972 18.5916C99.6972 18.04 99.5873 17.5376 99.3675 17.0845C99.1477 16.6116 98.8679 16.2373 98.5283 15.9615C98.1886 15.6857 97.8389 15.5478 97.4792 15.5478H90.9153V22.2561H97.4792ZM121.534 24.5612C121.514 25.034 121.325 25.4182 120.965 25.7137C120.605 26.0093 120.186 26.157 119.706 26.157H109.815C110.055 27.3194 110.605 28.2355 111.464 28.9054C112.323 29.5555 113.292 29.8806 114.371 29.8806C115.19 29.8806 115.83 29.8116 116.289 29.6737C116.749 29.5161 117.108 29.3585 117.368 29.2009C117.648 29.0236 117.838 28.9054 117.938 28.8463C118.297 28.669 118.637 28.5803 118.957 28.5803C119.376 28.5803 119.736 28.7281 120.036 29.0236C120.335 29.3191 120.485 29.6639 120.485 30.0579C120.485 30.5899 120.206 31.0725 119.646 31.506C119.087 31.9591 118.337 32.3433 117.398 32.6585C116.459 32.9737 115.51 33.1313 114.551 33.1313C112.872 33.1313 111.404 32.7866 110.145 32.097C108.906 31.4075 107.947 30.4618 107.268 29.26C106.588 28.0385 106.249 26.6693 106.249 25.1522C106.249 23.4579 106.608 21.9704 107.328 20.6899C108.047 19.4093 108.996 18.434 110.175 17.7642C111.354 17.0746 112.613 16.7298 113.951 16.7298C115.27 16.7298 116.509 17.0845 117.668 17.7937C118.847 18.503 119.786 19.4585 120.485 20.6603C121.185 21.8621 121.534 23.1624 121.534 24.5612ZM113.951 19.9806C111.634 19.9806 110.265 21.0543 109.845 23.2018H117.698V22.9949C117.618 22.1675 117.208 21.4582 116.469 20.8672C115.73 20.2761 114.891 19.9806 113.951 19.9806ZM128.279 31.0331C128.279 31.5454 128.099 31.9788 127.739 32.3334C127.4 32.6684 126.97 32.8358 126.451 32.8358C125.951 32.8358 125.531 32.6684 125.192 32.3334C124.852 31.9788 124.682 31.5454 124.682 31.0331V12.7698C124.682 12.2576 124.852 11.834 125.192 11.4991C125.551 11.1445 125.991 10.9672 126.511 10.9672C127.01 10.9672 127.43 11.1445 127.769 11.4991C128.109 11.834 128.279 12.2576 128.279 12.7698V31.0331ZM145.287 16.7298C145.807 16.7298 146.236 16.8973 146.576 17.2322C146.916 17.5672 147.086 18.0006 147.086 18.5325V31.0331C147.086 31.5454 146.916 31.9788 146.576 32.3334C146.236 32.6684 145.807 32.8358 145.287 32.8358C144.768 32.8358 144.338 32.6684 143.998 32.3334C143.679 31.9985 143.509 31.5749 143.489 31.0627C142.989 31.634 142.31 32.1266 141.451 32.5403C140.612 32.9343 139.722 33.1313 138.783 33.1313C137.405 33.1313 136.156 32.7866 135.037 32.097C133.918 31.3878 133.029 30.4125 132.369 29.1713C131.73 27.9301 131.41 26.5215 131.41 24.9454C131.41 23.3693 131.73 21.9606 132.369 20.7194C133.009 19.4585 133.878 18.4833 134.977 17.7937C136.096 17.0845 137.325 16.7298 138.663 16.7298C139.622 16.7298 140.522 16.9072 141.361 17.2618C142.2 17.5967 142.909 18.0301 143.489 18.5621V18.5325C143.489 18.0203 143.659 17.5967 143.998 17.2618C144.338 16.9072 144.768 16.7298 145.287 16.7298ZM139.233 29.8806C140.532 29.8806 141.591 29.4176 142.41 28.4916C143.229 27.546 143.639 26.3639 143.639 24.9454C143.639 23.5269 143.229 22.3448 142.41 21.3991C141.591 20.4534 140.532 19.9806 139.233 19.9806C137.954 19.9806 136.905 20.4534 136.086 21.3991C135.267 22.3448 134.857 23.5269 134.857 24.9454C134.857 26.3639 135.257 27.546 136.056 28.4916C136.875 29.4176 137.934 29.8806 139.233 29.8806ZM158.564 29.4964C158.844 29.4964 159.094 29.6343 159.313 29.9102C159.553 30.1663 159.673 30.511 159.673 30.9445C159.673 31.4764 159.373 31.9296 158.774 32.3039C158.194 32.6585 157.535 32.8358 156.796 32.8358C155.557 32.8358 154.508 32.5797 153.649 32.0675C152.809 31.5355 152.39 30.4224 152.39 28.7281V20.5716H151.011C150.532 20.5716 150.132 20.414 149.812 20.0988C149.492 19.7836 149.333 19.3896 149.333 18.9167C149.333 18.4636 149.492 18.0893 149.812 17.7937C150.132 17.4785 150.532 17.3209 151.011 17.3209H152.39V15.4296C152.39 14.9173 152.56 14.4937 152.899 14.1588C153.259 13.8042 153.699 13.6269 154.218 13.6269C154.718 13.6269 155.137 13.8042 155.477 14.1588C155.817 14.4937 155.986 14.9173 155.986 15.4296V17.3209H158.114C158.594 17.3209 158.994 17.4785 159.313 17.7937C159.633 18.109 159.793 18.503 159.793 18.9758C159.793 19.429 159.633 19.8131 159.313 20.1284C158.994 20.4239 158.594 20.5716 158.114 20.5716H155.986V28.5803C155.986 28.994 156.096 29.2994 156.316 29.4964C156.536 29.6737 156.836 29.7624 157.215 29.7624C157.375 29.7624 157.595 29.723 157.875 29.6442C158.114 29.5457 158.344 29.4964 158.564 29.4964ZM177.184 24.5612C177.164 25.034 176.974 25.4182 176.615 25.7137C176.255 26.0093 175.835 26.157 175.356 26.157H165.465C165.705 27.3194 166.254 28.2355 167.114 28.9054C167.973 29.5555 168.942 29.8806 170.021 29.8806C170.84 29.8806 171.479 29.8116 171.939 29.6737C172.399 29.5161 172.758 29.3585 173.018 29.2009C173.298 29.0236 173.488 28.9054 173.588 28.8463C173.947 28.669 174.287 28.5803 174.607 28.5803C175.026 28.5803 175.386 28.7281 175.686 29.0236C175.985 29.3191 176.135 29.6639 176.135 30.0579C176.135 30.5899 175.855 31.0725 175.296 31.506C174.736 31.9591 173.987 32.3433 173.048 32.6585C172.109 32.9737 171.16 33.1313 170.201 33.1313C168.522 33.1313 167.054 32.7866 165.795 32.097C164.556 31.4075 163.597 30.4618 162.917 29.26C162.238 28.0385 161.898 26.6693 161.898 25.1522C161.898 23.4579 162.258 21.9704 162.977 20.6899C163.697 19.4093 164.646 18.434 165.825 17.7642C167.004 17.0746 168.262 16.7298 169.601 16.7298C170.92 16.7298 172.159 17.0845 173.318 17.7937C174.497 18.503 175.436 19.4585 176.135 20.6603C176.835 21.8621 177.184 23.1624 177.184 24.5612ZM169.601 19.9806C167.283 19.9806 165.915 21.0543 165.495 23.2018H173.348V22.9949C173.268 22.1675 172.858 21.4582 172.119 20.8672C171.38 20.2761 170.54 19.9806 169.601 19.9806Z" fill="#150B1D"/>
</svg>
