<svg width="40" height="40" viewBox="0 0 40 40" fill="none" xmlns="http://www.w3.org/2000/svg">
<circle cx="20" cy="20" r="20" fill="#E1D7E9"/>
<path d="M20 16.095C17.8496 16.095 16.0947 17.8499 16.0947 20.0003C16.0947 22.1507 17.8496 23.9057 20 23.9057C22.1504 23.9057 23.9053 22.1507 23.9053 20.0003C23.9053 17.8499 22.1504 16.095 20 16.095ZM31.7129 20.0003C31.7129 18.3831 31.7276 16.7805 31.6367 15.1663C31.5459 13.2912 31.1182 11.6271 29.7471 10.256C28.3731 8.88198 26.7119 8.45717 24.8369 8.36635C23.2197 8.27553 21.6172 8.29018 20.0029 8.29018C18.3858 8.29018 16.7832 8.27553 15.169 8.36635C13.294 8.45717 11.6299 8.88491 10.2588 10.256C8.88478 11.6301 8.45998 13.2912 8.36916 15.1663C8.27834 16.7835 8.29299 18.386 8.29299 20.0003C8.29299 21.6146 8.27834 23.2201 8.36916 24.8344C8.45998 26.7094 8.88771 28.3735 10.2588 29.7446C11.6328 31.1187 13.294 31.5435 15.169 31.6343C16.7861 31.7251 18.3887 31.7105 20.0029 31.7105C21.6201 31.7105 23.2227 31.7251 24.8369 31.6343C26.7119 31.5435 28.376 31.1157 29.7471 29.7446C31.1211 28.3706 31.5459 26.7094 31.6367 24.8344C31.7305 23.2201 31.7129 21.6175 31.7129 20.0003ZM20 26.0092C16.6748 26.0092 13.9912 23.3256 13.9912 20.0003C13.9912 16.6751 16.6748 13.9914 20 13.9914C23.3252 13.9914 26.0088 16.6751 26.0088 20.0003C26.0088 23.3256 23.3252 26.0092 20 26.0092ZM26.2549 15.1487C25.4785 15.1487 24.8516 14.5217 24.8516 13.7453C24.8516 12.969 25.4785 12.342 26.2549 12.342C27.0313 12.342 27.6582 12.969 27.6582 13.7453C27.6585 13.9297 27.6223 14.1123 27.5519 14.2827C27.4814 14.453 27.3781 14.6078 27.2477 14.7382C27.1174 14.8685 26.9626 14.9719 26.7922 15.0423C26.6218 15.1128 26.4393 15.1489 26.2549 15.1487Z" fill="#673692"/>
</svg>
