<svg width="134" height="134" viewBox="0 0 134 134" fill="none" xmlns="http://www.w3.org/2000/svg">
<path d="M59.2634 34.9479C52.7012 22.0449 37.0604 16.5527 23.8372 22.7204C10.614 28.8882 4.76452 44.3949 10.4335 57.7168L59.2634 34.9461V34.9479Z" fill="#F1B31C"/>
<path d="M24.5742 22.6237C30.3995 19.9065 36.69 19.4598 42.4706 20.9021C40.8254 21.3153 39.1951 21.8792 37.602 22.6237C26.1077 27.9837 20.1987 40.401 22.5679 52.3084L11.1705 57.62C5.50338 44.2982 11.351 28.7877 24.5742 22.6218V22.6237Z" fill="#FCEA2B"/>
<path d="M124.062 57.6219C129.729 44.3 123.881 28.7895 110.658 22.6237C97.4347 16.4578 81.7958 21.9481 75.2317 34.8512L124.062 57.6237V57.6219Z" fill="#F1B31C"/>
<path d="M110.658 22.6237C104.833 19.9065 98.5422 19.4598 92.7634 20.9021C94.4068 21.3153 96.0371 21.8792 97.6302 22.6237C109.124 27.9837 115.035 40.401 112.666 52.3084L124.062 57.6219C129.729 44.3 123.881 28.7895 110.658 22.6237Z" fill="#FCEA2B"/>
<path d="M35.91 62.2151C37.9657 62.2151 39.6322 60.5727 39.6322 58.5468C39.6322 56.5209 37.9657 54.8786 35.91 54.8786C33.8542 54.8786 32.1877 56.5209 32.1877 58.5468C32.1877 60.5727 33.8542 62.2151 35.91 62.2151Z" fill="#EA5A47"/>
<path d="M82.4378 65.9373C84.4935 65.9373 86.16 64.295 86.16 62.2691C86.16 60.2431 84.4935 58.6008 82.4378 58.6008C80.3821 58.6008 78.7156 60.2431 78.7156 62.2691C78.7156 64.295 80.3821 65.9373 82.4378 65.9373Z" fill="#8967AA"/>
<path d="M74.9935 106.882C77.0492 106.882 78.7157 105.239 78.7157 103.214C78.7157 101.188 77.0492 99.5453 74.9935 99.5453C72.9377 99.5453 71.2712 101.188 71.2712 103.214C71.2712 105.239 72.9377 106.882 74.9935 106.882Z" fill="#FCEA2B"/>
<path d="M59.2634 34.9479C52.7012 22.0449 37.0604 16.5527 23.8372 22.7204C10.614 28.8882 4.76452 44.3949 10.4335 57.7168L59.2634 34.9461V34.9479Z" stroke="black" stroke-width="2" stroke-miterlimit="10" stroke-linecap="round" stroke-linejoin="round"/>
<path d="M124.062 57.6219C129.729 44.3 123.881 28.7895 110.658 22.6237C97.435 16.4578 81.7961 21.9481 75.2319 34.8512L124.062 57.6237V57.6219Z" stroke="black" stroke-width="2" stroke-miterlimit="10" stroke-linecap="round" stroke-linejoin="round"/>
<path d="M67.672 56.4698C66.8605 56.9481 66.1086 57.5642 65.4498 58.316C62.0365 62.2132 62.4125 68.2935 66.291 71.8966" stroke="black" stroke-width="2" stroke-miterlimit="10" stroke-linecap="round" stroke-linejoin="round"/>
<path d="M66.008 71.677C66.7673 72.2334 67.4541 72.9221 68.0347 73.7354C71.0404 77.9545 70.0578 83.9677 65.8386 87.1633" stroke="black" stroke-width="2" stroke-miterlimit="10" stroke-linecap="round" stroke-linejoin="round"/>
<path d="M39.0016 79.9403C38.0804 80.1357 37.1703 80.48 36.3067 80.9825C31.8308 83.5918 30.2507 89.4748 32.7818 94.1257" stroke="black" stroke-width="2" stroke-miterlimit="10" stroke-linecap="round" stroke-linejoin="round"/>
<path d="M32.5826 93.826C33.126 94.5965 33.5578 95.4675 33.8481 96.4223C35.3556 101.38 32.51 106.766 27.4924 108.454" stroke="black" stroke-width="2" stroke-miterlimit="10" stroke-linecap="round" stroke-linejoin="round"/>
<path d="M99.5564 71.8761C100.444 72.1906 101.3 72.6503 102.089 73.2626C106.186 76.4358 106.977 82.477 103.857 86.7557" stroke="black" stroke-width="2" stroke-miterlimit="10" stroke-linecap="round" stroke-linejoin="round"/>
<path d="M104.094 86.4839C103.437 87.1964 102.899 88.0095 102.499 88.8922C100.353 93.6083 102.465 99.3219 107.219 101.654" stroke="black" stroke-width="2" stroke-miterlimit="10" stroke-linecap="round" stroke-linejoin="round"/>
</svg>
