<svg width="195" height="53" viewBox="0 0 195 53" fill="none" xmlns="http://www.w3.org/2000/svg">
<path d="M74.448 36.416C78.32 36.416 81.36 34.816 83.536 32.384V24.192H73.36V28.16H78.992V30.72C78.128 31.52 76.336 32.352 74.448 32.352C70.576 32.352 67.76 29.376 67.76 25.344C67.76 21.312 70.576 18.336 74.448 18.336C76.72 18.336 78.544 19.616 79.504 21.12L83.28 19.072C81.68 16.544 78.896 14.304 74.448 14.304C68.208 14.304 63.088 18.592 63.088 25.344C63.088 32.064 68.208 36.416 74.448 36.416ZM94.3113 36.384C96.7113 36.384 99.1433 35.648 100.679 34.24L98.8873 31.616C97.8953 32.576 96.0713 33.152 94.7593 33.152C92.1353 33.152 90.5673 31.52 90.3113 29.568H101.799V28.672C101.799 23.616 98.6633 20.16 94.0553 20.16C89.3513 20.16 86.0553 23.776 86.0553 28.256C86.0553 33.216 89.6073 36.384 94.3113 36.384ZM97.8633 26.816H90.2473C90.4393 25.28 91.5273 23.392 94.0553 23.392C96.7433 23.392 97.7673 25.344 97.8633 26.816ZM109.919 36.384C111.615 36.384 112.703 35.936 113.311 35.392L112.447 32.32C112.223 32.544 111.647 32.768 111.039 32.768C110.143 32.768 109.631 32.032 109.631 31.072V24.096H112.767V20.544H109.631V16.32H105.535V20.544H102.975V24.096H105.535V32.16C105.535 34.912 107.071 36.384 109.919 36.384Z" fill="#EC5E48"/>
<path d="M139.248 36V14.656H132.848L127.664 27.552L122.48 14.656H116.112V36H120.656V21.056L126.672 36H128.656L134.672 21.056V36H139.248ZM150.559 36.384C155.679 36.384 158.751 32.672 158.751 28.256C158.751 23.872 155.679 20.16 150.559 20.16C145.471 20.16 142.399 23.872 142.399 28.256C142.399 32.672 145.471 36.384 150.559 36.384ZM150.559 32.768C148.031 32.768 146.623 30.688 146.623 28.256C146.623 25.856 148.031 23.776 150.559 23.776C153.087 23.776 154.527 25.856 154.527 28.256C154.527 30.688 153.087 32.768 150.559 32.768ZM165.83 36V14.656H161.766V36H165.83ZM173.924 36V14.656H169.86V36H173.924ZM185.122 36.384C190.242 36.384 193.314 32.672 193.314 28.256C193.314 23.872 190.242 20.16 185.122 20.16C180.034 20.16 176.962 23.872 176.962 28.256C176.962 32.672 180.034 36.384 185.122 36.384ZM185.122 32.768C182.594 32.768 181.186 30.688 181.186 28.256C181.186 25.856 182.594 23.776 185.122 23.776C187.65 23.776 189.09 25.856 189.09 28.256C189.09 30.688 187.65 32.768 185.122 32.768Z" fill="#34006A"/>
<path d="M3.07959 23.3666C1.37878 19.2888 3.30571 14.6043 7.3835 12.9035L36.6503 0.696643L40.2245 9.26602L3.5742 24.5525L3.07959 23.3666Z" fill="#34006A"/>
<rect x="23.2122" y="24.9945" width="17.2441" height="9.28489" transform="rotate(-22.6405 23.2122 24.9945)" fill="#EC5E48"/>
<path d="M12 44.2492L36.5731 34L40.1473 42.5694L22.9577 49.739C18.8799 51.4398 14.1954 49.5128 12.4946 45.435L12 44.2492Z" fill="#34006A"/>
<rect x="11.3961" y="18.877" width="25.7764" height="9.28489" transform="rotate(67.3595 11.3961 18.877)" fill="#34006A"/>
<path d="M40.034 17.9872C41.5632 17.3494 43.3198 18.072 43.9576 19.6012L51.0262 36.5486L42.4568 40.1228L34.2334 20.4066L40.034 17.9872Z" fill="#EC5E48"/>
</svg>
