<svg width="626" height="418" viewBox="0 0 626 418" fill="none" xmlns="http://www.w3.org/2000/svg">
<path d="M592.613 150.154C591.467 146.325 590.182 142.558 588.757 138.851C576.571 107.217 549.194 83.6752 520.189 69.3378C494.957 56.848 466.395 49.9008 438.05 51.0545C371.276 53.7548 310.304 99.0744 242.621 88.9086C154.355 75.658 85.9707 51.5645 46.7998 109.558C7.62885 167.551 16.9938 278.656 70.1704 325.572C123.347 372.488 195.312 353.519 243.205 340.068C291.098 326.617 392.293 394.592 514.989 345.728C550.262 331.683 576.671 303.752 589.225 267.035C601.886 230.017 603.764 187.431 592.613 150.154Z" fill="#EC5E48"/>
<path opacity="0.7" d="M592.613 150.154C591.467 146.325 590.182 142.558 588.757 138.851C576.571 107.217 549.194 83.6752 520.189 69.3378C494.957 56.848 466.395 49.9008 438.05 51.0545C371.276 53.7548 310.304 99.0744 242.621 88.9086C154.355 75.658 85.9707 51.5645 46.7998 109.558C7.62885 167.551 16.9938 278.656 70.1704 325.572C123.347 372.488 195.312 353.519 243.205 340.068C291.098 326.617 392.293 394.592 514.989 345.728C550.262 331.683 576.671 303.752 589.225 267.035C601.886 230.017 603.764 187.431 592.613 150.154Z" fill="white"/>
<path d="M487.028 46.2308C486.784 45.4471 486.373 44.7257 485.823 44.1163C485.274 43.5069 484.599 43.024 483.846 42.7006C483.092 42.3773 482.278 42.2213 481.458 42.2433C480.639 42.2654 479.834 42.4649 479.099 42.8283C462.572 50.8539 417.559 73.2587 423.485 76.2683C429.411 79.2779 471.261 71.7706 487.404 68.7443C488.194 68.5969 488.945 68.2831 489.606 67.8236C490.266 67.3641 490.822 66.7694 491.236 66.0788C491.651 65.3881 491.914 64.6173 492.008 63.8172C492.103 63.0172 492.027 62.2061 491.786 61.4376L487.028 46.2308Z" stroke="#263238" stroke-linecap="round" stroke-linejoin="round"/>
<path d="M35.248 284.432C33.153 282.091 33.4451 279.015 35.8656 277.928C48.7111 272.168 84.1093 256.744 83.9591 261.844C83.8089 266.943 61.0809 288.203 52.2418 296.337C50.4055 298.009 46.9583 297.482 44.8967 295.183L35.248 284.432Z" stroke="#263238" stroke-linecap="round" stroke-linejoin="round"/>
<path d="M215.728 84.9292C215.728 84.9292 191.84 43.5974 184.595 43.5974C177.35 43.5974 157.81 66.8048 162.894 70.4246C167.977 74.0445 206.296 98.0127 212.848 95.8056C219.4 93.5986 215.728 84.9292 215.728 84.9292Z" stroke="#263238" stroke-linecap="round" stroke-linejoin="round"/>
<path d="M566.23 202.998C564.911 201.867 563.209 201.289 561.476 201.382C559.743 201.476 558.113 202.234 556.923 203.499C550.655 210.187 539.954 222.117 541.899 223.864C544.678 226.297 570.211 216.75 573.616 213.707C575.778 211.826 570.545 206.668 566.23 202.998Z" stroke="#263238" stroke-linecap="round" stroke-linejoin="round"/>
<path d="M549.628 345.452C550.335 344.231 550.546 342.785 550.218 341.413C549.89 340.04 549.049 338.847 547.867 338.078C541.624 334.024 530.531 327.21 529.429 329.025C527.893 331.608 539.22 350.669 542.149 352.968C543.961 354.38 547.316 349.448 549.628 345.452Z" stroke="#263238" stroke-linecap="round" stroke-linejoin="round"/>
<path d="M307.767 277.502C309.497 277.65 311.218 277.125 312.572 276.035C313.926 274.945 314.809 273.375 315.037 271.65C316.264 262.563 318.033 246.612 315.404 246.353C311.731 245.993 296.507 268.632 295.497 273.104C294.871 275.88 302.149 277.025 307.767 277.502Z" stroke="#263238" stroke-linecap="round" stroke-linejoin="round"/>
<path d="M525.598 110.31C532.794 110.31 538.627 104.468 538.627 97.2603C538.627 90.053 532.794 84.2103 525.598 84.2103C518.402 84.2103 512.569 90.053 512.569 97.2603C512.569 104.468 518.402 110.31 525.598 110.31Z" stroke="#263238" stroke-linecap="round" stroke-linejoin="round"/>
<path d="M385.14 102.335C385.14 101.187 384.801 100.066 384.164 99.1115C383.528 98.1574 382.623 97.4137 381.564 96.9746C380.506 96.5355 379.341 96.4206 378.218 96.6444C377.094 96.8683 376.062 97.4209 375.252 98.2323C374.442 99.0437 373.89 100.077 373.666 101.203C373.443 102.328 373.558 103.495 373.996 104.555C374.434 105.615 375.177 106.521 376.129 107.159C377.082 107.796 378.202 108.137 379.348 108.137C380.884 108.137 382.357 107.525 383.444 106.437C384.53 105.349 385.14 103.874 385.14 102.335V102.335Z" stroke="#263238" stroke-linecap="round" stroke-linejoin="round"/>
<path d="M542.25 290.878C545.449 290.878 548.042 288.28 548.042 285.076C548.042 281.872 545.449 279.274 542.25 279.274C539.05 279.274 536.457 281.872 536.457 285.076C536.457 288.28 539.05 290.878 542.25 290.878Z" stroke="#263238" stroke-linecap="round" stroke-linejoin="round"/>
<path d="M167.264 134.805C170.768 133.977 172.938 130.46 172.111 126.951C171.284 123.441 167.773 121.268 164.269 122.096C160.765 122.924 158.595 126.441 159.422 129.95C160.249 133.46 163.76 135.633 167.264 134.805Z" stroke="#263238" stroke-linecap="round" stroke-linejoin="round"/>
<path d="M381.526 356.136C385.924 356.136 389.489 352.565 389.489 348.16C389.489 343.756 385.924 340.185 381.526 340.185C377.128 340.185 373.563 343.756 373.563 348.16C373.563 352.565 377.128 356.136 381.526 356.136Z" stroke="#263238" stroke-linecap="round" stroke-linejoin="round"/>
<path d="M198.811 323.422C202.753 322.764 205.416 319.029 204.758 315.08C204.1 311.132 200.372 308.465 196.429 309.123C192.487 309.782 189.825 313.517 190.482 317.465C191.14 321.414 194.869 324.081 198.811 323.422Z" stroke="#263238" stroke-linecap="round" stroke-linejoin="round"/>
<path d="M55.1819 131.202C60.7058 130.304 64.457 125.091 63.5603 119.558C62.6637 114.025 57.4587 110.268 51.9348 111.166C46.4109 112.064 42.6598 117.278 43.5564 122.81C44.4531 128.343 49.658 132.1 55.1819 131.202Z" stroke="#263238" stroke-linecap="round" stroke-linejoin="round"/>
<path d="M75.9964 153.824C75.998 153.106 75.787 152.404 75.39 151.806C74.9929 151.208 74.4278 150.742 73.766 150.466C73.1042 150.19 72.3756 150.117 71.6724 150.256C70.9691 150.395 70.3229 150.74 69.8154 151.247C69.308 151.754 68.9622 152.401 68.8217 153.105C68.6813 153.809 68.7525 154.539 69.0264 155.202C69.3004 155.866 69.7647 156.433 70.3605 156.832C70.9564 157.231 71.6571 157.444 72.3739 157.444C73.3332 157.444 74.2534 157.063 74.9325 156.384C75.6116 155.705 75.9942 154.785 75.9964 153.824Z" stroke="#263238" stroke-linecap="round" stroke-linejoin="round"/>
<path d="M474.091 107.618C475.287 107.088 476.551 106.728 477.847 106.548C479.933 106.272 480.284 105.712 479.725 105.361C479.165 105.01 479.725 105.294 477.012 105.921C474.299 106.548 474.091 107.618 474.091 107.618Z" stroke="#263238" stroke-linecap="round" stroke-linejoin="round"/>
<path d="M481.436 148.808C481.436 148.808 479.883 143.708 477.054 136.628C474.224 129.547 469.133 120.484 468.991 117.4C468.849 114.315 471.119 109.876 474.082 107.627C477.045 105.378 480.868 103.806 481.152 103.096C481.436 102.385 481.436 101.424 480.443 101.683C479.812 101.865 479.198 102.1 478.606 102.385C479.283 101.781 479.848 101.062 480.276 100.262C480.701 99.275 480.276 98.5895 479.858 98.8487C479.441 99.1078 478.439 98.2802 477.313 99.1329C476.186 99.9856 469.108 105.503 469.108 105.503C469.108 105.503 470.385 101.816 469.817 101.398C469.25 100.98 467.839 101.816 467.697 102.811C467.446 104.211 467.069 105.585 466.57 106.916C466.003 108.479 464.726 110.034 464.726 112.868C464.7 114.455 464.94 116.034 465.435 117.542C465.435 117.542 467.105 142.463 469.675 149.82C472.246 157.176 473.356 159.852 473.356 159.852L481.553 151.776L481.436 148.808Z" fill="white" stroke="#263238" stroke-linecap="round" stroke-linejoin="round"/>
<path d="M469.133 105.495C469.133 105.495 468.799 108.22 468.732 108.839" stroke="#263238" stroke-linecap="round" stroke-linejoin="round"/>
<path d="M479.883 98.8403L477.563 101.156C476.444 102.268 474.016 104.843 474.016 104.843" stroke="#263238" stroke-linecap="round" stroke-linejoin="round"/>
<path d="M478.606 102.377L474.775 105.779" stroke="#263238" stroke-linecap="round" stroke-linejoin="round"/>
<path d="M476.511 149.719C477.193 148.567 478.205 147.647 479.416 147.077C481.219 146.384 494.807 145.272 497.996 147.353C501.184 149.435 509.23 168.747 510.516 173.88C511.801 179.013 509.681 183.184 514.689 186.378C519.697 189.571 519.405 194.295 517.602 197.07C515.799 199.846 514.689 200.682 516.074 202.922C517.46 205.163 517.185 207.228 514.831 209.176C512.477 211.123 506.926 211.257 506.926 211.257C506.926 211.257 497.353 187.782 496.076 182.089C494.799 176.396 493.572 161.264 490.116 161.398C486.661 161.532 476.661 167.25 476.244 167.509C475.827 167.768 475.276 164.458 475.276 160.153C475.405 156.647 475.818 153.158 476.511 149.719Z" fill="#263238" stroke="#263238" stroke-linecap="round" stroke-linejoin="round"/>
<path d="M487.445 355.183C487.445 355.183 488.989 365.215 488.28 370.758C488.28 370.975 488.222 371.192 488.188 371.393C487.253 376.802 483.18 379.594 481.302 381.266C479.424 382.938 476.094 383.691 477.964 384.811C479.833 385.931 484.641 386.115 488.38 385.187C492.119 384.259 494.331 382.57 499.915 380.171C505.499 377.772 503.638 374.018 502.144 371.226C500.65 368.434 498.238 364.889 498.054 363.777C497.87 362.665 497.495 349.983 497.495 349.983L487.445 355.183Z" fill="white" stroke="#263238" stroke-linecap="round" stroke-linejoin="round"/>
<path d="M499.915 380.154C505.491 377.73 503.638 374.001 502.144 371.209C501.651 370.281 501.059 369.278 500.474 368.3C497.344 371.167 492.286 373.073 492.286 373.073L491.168 371.401C490.058 369.729 488.197 371.401 488.197 371.401C487.262 376.81 483.189 379.603 481.311 381.275C479.433 382.947 476.102 383.699 477.972 384.819C479.842 385.939 484.649 386.123 488.389 385.187C492.128 384.251 494.331 382.57 499.915 380.154Z" fill="white" stroke="#263238" stroke-linecap="round" stroke-linejoin="round"/>
<path d="M470.335 346.246C470.335 346.246 461.22 368.818 459.918 370.649C458.616 372.48 453.408 376.61 451.363 378.106C449.318 379.603 441.873 380.714 441.347 382.203C440.821 383.691 444.886 384.811 450.653 386.115C456.421 387.419 465.677 385.187 467.205 384.811C468.732 384.435 469.625 382.386 469.625 379.594C469.463 377.192 469.026 374.816 468.323 372.513L483.022 350.527L470.335 346.246Z" fill="white" stroke="#263238" stroke-linecap="round" stroke-linejoin="round"/>
<path d="M451.363 378.106C449.318 379.594 441.873 380.715 441.347 382.203C440.821 383.691 444.886 384.811 450.653 386.115C456.421 387.419 465.677 385.179 467.205 384.811C468.732 384.443 469.625 382.386 469.625 379.594C469.581 378.203 469.396 376.819 469.074 375.464C466.334 375.379 463.6 375.139 460.886 374.745C460.87 373.812 460.806 372.88 460.694 371.953C460.511 370.281 459.951 370.649 459.951 370.649C458.616 372.513 453.408 376.61 451.363 378.106Z" fill="white" stroke="#263238" stroke-linecap="round" stroke-linejoin="round"/>
<path d="M468.106 225.511C468.106 225.511 467.171 250.474 467.731 262.772C468.29 275.069 472.572 296.68 473.874 305.065C475.176 313.45 477.212 321.275 477.212 321.275L468.665 347.918C468.665 347.918 474.617 351.831 479.449 352.767C481.894 353.304 484.392 353.554 486.894 353.511L488.38 353.319C488.38 353.319 492.103 336.365 494.707 327.98C497.311 319.594 498.98 314.01 499.356 312.706C499.732 311.402 515.357 288.671 516.283 274.885C517.21 261.1 512.56 248.969 509.956 246.561C507.852 244.424 505.924 242.12 504.189 239.673C504.189 239.673 500.85 230.912 500.658 229.423C500.466 227.935 468.106 225.511 468.106 225.511Z" fill="white" stroke="#263238" stroke-linecap="round" stroke-linejoin="round"/>
<path d="M495.517 228.228C486.335 226.916 468.106 225.553 468.106 225.553C468.106 225.553 467.981 228.964 467.847 233.913C483.531 234.699 500.658 229.499 500.658 229.499L495.517 228.228Z" fill="#263238" stroke="#263238" stroke-linecap="round" stroke-linejoin="round"/>
<path d="M470.752 191.787C470.752 191.787 460.143 214.359 458.841 218.054C457.941 220.856 457.257 223.724 456.796 226.631C463.054 227.493 469.22 228.926 475.217 230.912C484.516 234.08 505.349 231.095 507.769 229.423C509.624 228.195 511.55 227.078 513.537 226.079C513.537 226.079 506.284 197.94 506.284 196.084C506.284 194.228 504.23 186.946 501.067 185.458C497.904 183.97 474.616 187.69 470.752 191.787Z" fill="white" stroke="#263238" stroke-linecap="round" stroke-linejoin="round"/>
<path d="M482.613 179.74L484.474 191.018L498.054 186.261L497.587 179.322C497.587 179.322 495.5 182.516 492.453 183.209C489.407 183.903 482.613 179.74 482.613 179.74Z" fill="white" stroke="#263238" stroke-linecap="round" stroke-linejoin="round"/>
<path d="M476.511 149.719C476.511 149.719 465.661 168.186 466.387 173.328C467.113 178.469 473.598 184.02 473.456 184.856C473.314 185.692 465.001 187.908 465.944 192.907C466.887 197.906 472.188 200.264 470.118 201.936C468.048 203.608 467.071 203.181 468.039 205.823C469.008 208.465 474.283 209.853 473.314 211.934C472.346 214.016 469.291 216.658 471.228 218.321C473.164 219.985 477.746 219.709 477.905 219.015C478.064 218.321 475.827 217.903 476.236 216.658C476.645 215.412 479.574 215.128 479.149 210.271C478.723 205.414 476.795 202.747 477.07 201.911C477.346 201.075 483.172 196.895 483.865 193.852C484.557 190.809 482.754 181.078 482.754 181.078L481.227 173.161L476.511 149.719Z" fill="#263238" stroke="#263238" stroke-linecap="round" stroke-linejoin="round"/>
<path d="M495.792 153.339L493.013 156.257C493.013 156.257 484.123 159.743 480.785 161.273C477.446 162.803 477.312 164.751 477.588 165.587C477.863 166.423 480.092 175.619 480.785 178.127C481.477 180.635 485.793 185.082 488.013 186.336C489.135 186.881 490.388 187.101 491.629 186.969C492.87 186.838 494.049 186.361 495.032 185.592C496.56 184.196 498.847 178.82 499.54 176.873C500.018 175.379 500.345 173.842 500.516 172.283C500.516 172.283 502.736 169.499 502.603 166.431C502.469 163.363 500.934 162.669 499.823 163.781C499.279 164.23 498.85 164.804 498.571 165.453C498.187 164.038 497.526 162.714 496.627 161.557C494.957 159.191 494.815 158.079 495.375 157.243C495.934 156.407 496.735 151.809 495.792 153.339Z" fill="white" stroke="#263238" stroke-linecap="round" stroke-linejoin="round"/>
<path d="M487.445 176.998C487.445 176.998 487.863 178.386 488.973 177.968C489.849 177.549 490.648 176.983 491.335 176.296" stroke="#263238" stroke-linecap="round" stroke-linejoin="round"/>
<path d="M486.319 180.058C487.347 180.587 488.53 180.735 489.657 180.476C491.602 180.058 494.373 176.998 494.373 176.998" stroke="#263238" stroke-linecap="round" stroke-linejoin="round"/>
<path d="M488.405 180.894C488.556 181.233 488.814 181.512 489.141 181.688C489.467 181.863 489.843 181.925 490.208 181.864C491.46 181.588 492.011 179.64 492.011 179.64L488.405 180.894Z" stroke="#263238" stroke-linecap="round" stroke-linejoin="round"/>
<path d="M493.063 172.291C493.51 172.291 493.872 171.603 493.872 170.753C493.872 169.904 493.51 169.215 493.063 169.215C492.615 169.215 492.253 169.904 492.253 170.753C492.253 171.603 492.615 172.291 493.063 172.291Z" fill="#263238"/>
<path d="M485.935 171.38C485.935 172.216 485.576 172.918 485.1 172.918C484.624 172.918 484.265 172.233 484.265 171.38C484.265 170.527 484.633 169.842 485.1 169.842C485.567 169.842 485.935 170.544 485.935 171.38Z" fill="#263238"/>
<path d="M491.318 167.668C491.318 167.668 493.822 165.302 495.909 167.952" stroke="#263238" stroke-linecap="round" stroke-linejoin="round"/>
<path d="M485.901 168.37C485.901 168.37 482.988 167.392 482.012 169.616" stroke="#263238" stroke-linecap="round" stroke-linejoin="round"/>
<path d="M519.772 165.829C519.772 165.829 507.569 179.857 507.152 180.576C506.734 181.295 502.578 183.352 500.633 187.381C498.688 191.411 500.358 208.348 502.436 210.99C504.514 213.632 508.279 211.542 509.372 208.624C510.465 205.706 513.387 194.32 513.387 194.32C513.387 194.32 524.07 177.516 525.072 175.159C526.332 172.235 527.863 169.436 529.646 166.799C531.591 163.881 550.304 141.802 550.304 141.802C550.304 141.802 554.603 137.622 555.312 137.221C556.022 136.82 559.485 134.437 560.028 132.631C560.57 130.826 561.413 127.498 561.413 127.498C562.198 125.798 562.898 124.06 563.508 122.29C563.592 121.605 562.782 121.036 562.457 121.563C562.131 122.09 561.572 123.101 561.13 123.945C560.948 124.33 560.73 124.697 560.479 125.041C560.479 125.041 561.973 120.025 561.973 118.528C561.973 117.032 561.489 116.463 561.088 116.747C560.687 117.032 560.646 117.274 560.52 117.884C560.286 118.91 559.99 119.92 559.636 120.911C559.352 121.638 558.626 123.017 558.626 123.017C558.626 123.017 559.31 117.165 559.394 116.062C559.477 114.958 558.909 114.164 558.467 114.565C558.025 114.967 558.1 115.535 557.983 116.304C557.866 117.073 556.731 122.407 556.689 122.533C556.648 122.658 556.322 123.218 556.322 123.218C556.322 123.218 555.963 118.286 555.838 116.63C555.713 114.975 554.953 114.649 554.594 115.46C554.235 116.271 554.102 117.232 554.269 119.414C554.347 121.22 554.319 123.029 554.185 124.832L552.407 127.264C551.893 126.295 551.256 125.396 550.513 124.589C549.461 123.544 546.723 124.104 547.324 124.715C547.925 125.325 548.376 124.957 548.994 125.927C549.706 127.292 550.118 128.794 550.204 130.332C550.329 131.954 550.488 133.125 550.488 133.125C550.488 133.125 545.805 137.53 544.069 139.102C542.333 140.674 526.291 149.978 519.772 165.829Z" fill="white" stroke="#263238" stroke-linecap="round" stroke-linejoin="round"/>
<path d="M550.421 133.125C550.52 133.542 550.75 133.917 551.078 134.194C551.405 134.471 551.813 134.635 552.241 134.663" stroke="#263238" stroke-linecap="round" stroke-linejoin="round"/>
<path d="M556.397 124.898C556.397 124.898 559.285 126.345 559.828 126.704" stroke="#263238" stroke-linecap="round" stroke-linejoin="round"/>
<path d="M485.592 352.575L486.335 357.591C488.518 357.254 490.645 356.627 492.662 355.726C496.001 354.238 502.144 350.51 502.144 350.51C502.144 350.51 499.732 328.523 498.98 321.442C498.229 314.361 497.461 309.914 497.461 309.914L484.624 341.774L485.592 352.575Z" fill="#EC5E48" stroke="#263238" stroke-linecap="round" stroke-linejoin="round"/>
<path d="M508.638 245.224C501.484 247.958 486.018 253.684 479.825 254.42C475.309 254.938 470.752 253.074 467.555 251.293C467.555 255.548 467.555 259.603 467.731 262.805C468.29 275.103 472.572 296.713 473.874 305.098C475.176 313.483 477.212 321.308 477.212 321.308L468.665 347.918C468.665 347.918 474.616 351.831 479.449 352.767C481.894 353.304 484.392 353.554 486.894 353.511L488.38 353.319C488.38 353.319 492.103 336.365 494.707 327.98C497.311 319.594 498.98 314.01 499.356 312.706C499.732 311.402 515.357 288.671 516.283 274.885C517.21 261.1 512.56 248.969 509.956 246.561C509.531 246.16 509.08 245.7 508.638 245.224Z" fill="#EC5E48" stroke="#263238" stroke-linecap="round" stroke-linejoin="round"/>
<path d="M482.746 272.678L485.4 274.141" stroke="#263238" stroke-linecap="round" stroke-linejoin="round"/>
<path d="M475.543 268.732L480.893 271.667" stroke="#263238" stroke-linecap="round" stroke-linejoin="round"/>
<path d="M488.564 267.62C488.564 267.62 481.127 303.761 480.568 306.912C480.277 308.326 480.09 309.76 480.008 311.201L477.78 312.873L480.384 314.177C480.384 314.177 480.568 310.641 481.686 311.385L482.796 312.129C482.796 312.129 483.731 309.897 484.466 310.081C485.2 310.265 486.327 313.425 486.327 313.425C486.327 313.425 489.298 311 488.931 313.801C488.564 316.602 484.841 319.762 483.347 319.946C481.853 320.13 477.772 316.217 477.772 316.217L477.212 321.233" stroke="#263238" stroke-linecap="round" stroke-linejoin="round"/>
<path d="M483.422 343.086L482.053 347.55" stroke="#263238" stroke-linecap="round" stroke-linejoin="round"/>
<path d="M507.477 262.504C505.416 265.53 503.638 270.028 503.638 271.123C503.638 272.611 498.054 299.631 494.891 307.64C492.771 313.007 487.737 329.066 484.641 339.09" stroke="#263238" stroke-linecap="round" stroke-linejoin="round"/>
<path d="M504.748 247.682C504.748 247.682 503.079 250.106 504.189 251.218C505.299 252.33 509.589 251.97 508.471 253.082C507.352 254.194 503.463 256.251 506.05 256.995C508.637 257.739 512.377 258.115 509.589 260.163" stroke="#263238" stroke-linecap="round" stroke-linejoin="round"/>
<path d="M479.825 254.386L481.494 263.332" stroke="#263238" stroke-linecap="round" stroke-linejoin="round"/>
<path d="M484.29 257.087C484.292 257.327 484.222 257.562 484.09 257.763C483.958 257.963 483.77 258.12 483.549 258.213C483.328 258.306 483.084 258.331 482.849 258.285C482.614 258.239 482.397 258.124 482.227 257.955C482.057 257.786 481.941 257.57 481.894 257.335C481.846 257.099 481.87 256.855 481.961 256.633C482.052 256.411 482.208 256.221 482.407 256.088C482.606 255.954 482.84 255.883 483.08 255.883C483.4 255.883 483.706 256.01 483.933 256.235C484.16 256.461 484.288 256.767 484.29 257.087V257.087Z" stroke="#263238" stroke-linecap="round" stroke-linejoin="round"/>
<path d="M479.641 317.923L480.384 314.194C480.384 314.194 480.793 311.209 481.219 311.31C481.769 311.527 482.293 311.808 482.78 312.146C482.78 312.146 484.006 309.922 484.449 310.098C484.891 310.273 486.31 313.442 486.31 313.442C486.31 313.442 488.589 311.962 488.948 312.815C489.307 313.667 488.28 316.008 487.771 316.844C486.861 317.918 485.801 318.856 484.624 319.628C484.393 319.813 484.119 319.938 483.828 319.991C483.536 320.043 483.236 320.022 482.955 319.929C482.387 319.603 479.641 317.923 479.641 317.923Z" fill="white" stroke="#263238" stroke-linecap="round" stroke-linejoin="round"/>
<path d="M422.425 312.907C425.034 312.543 427.597 311.902 430.07 310.992C434.244 309.462 439.819 306.394 441.539 307.356C443.258 308.317 434.469 316.735 431.406 319.987C428.343 323.24 424.144 326.5 421.465 328.983C418.786 331.466 417.834 334.342 414.971 333.389C412.108 332.436 407.317 323.816 407.317 322.286C407.317 320.757 422.425 312.907 422.425 312.907Z" fill="#EC5E48" stroke="#263238" stroke-linecap="round" stroke-linejoin="round"/>
<path d="M419.362 326.876C416.799 328.623 414.245 330.22 412.417 331.29C413.084 332.188 413.961 332.909 414.971 333.389C417.834 334.342 418.794 331.474 421.465 328.983C424.136 326.491 428.351 323.239 431.406 319.987C434.461 316.735 443.258 308.283 441.539 307.355C441.539 307.355 432.174 316.159 428.735 318.65C425.296 321.141 424.144 323.624 419.362 326.876Z" fill="white" stroke="#263238" stroke-linecap="round" stroke-linejoin="round"/>
<path d="M300.096 300.458C300.096 300.458 291.691 298.544 290.915 300.074C290.138 301.604 284.797 315.958 284.797 319.987C284.797 324.017 286.9 331.859 288.427 330.897C289.955 329.936 289.195 324.769 290.531 322.671C291.866 320.573 301.432 313.86 301.432 313.86L300.096 300.458Z" fill="#EC5E48" stroke="#263238" stroke-linecap="round" stroke-linejoin="round"/>
<path d="M293.485 299.489C292.2 299.489 291.165 299.589 290.923 300.074C290.155 301.612 284.805 315.958 284.805 319.987C284.805 324.017 286.908 331.859 288.436 330.897C288.244 329.944 286.524 323.816 286.524 320.564C286.524 317.981 291.441 304.847 293.485 299.489Z" fill="white" stroke="#263238" stroke-linecap="round" stroke-linejoin="round"/>
<path d="M331.446 220.821C331.446 220.821 332.59 244.94 333.549 251.26C334.509 257.58 343.106 291.271 343.106 291.271C343.106 291.271 310.229 300.843 307.742 300.843C305.254 300.843 298.761 300.074 298.761 300.074C298.761 300.074 296.849 304.095 297.233 307.732C297.617 311.368 299.904 317.112 299.904 317.112L318.843 311.184C318.843 311.184 354.967 305.441 356.878 304.287C358.79 303.134 361.469 301.035 361.661 298.736C361.853 296.437 363.956 265.43 364.332 264.084C364.708 262.738 367.587 254.704 367.587 254.704L402.184 257.58C399.856 264.802 398.946 272.408 399.505 279.976C400.456 292.416 403.328 309.078 403.52 310.223C403.712 311.368 403.904 315.389 404.471 317.112L407.317 325.731C409.611 324.556 411.733 323.074 413.627 321.325C416.131 318.817 423.752 312.522 423.752 312.522C423.752 312.522 422.992 310.992 421.841 309.078C420.689 307.163 418.978 305.249 418.594 303.527C418.21 301.804 418.786 264.084 419.929 260.832C421.073 257.58 425.087 245.901 422.608 243.025C420.129 240.149 395.465 232.308 389.731 230.778C383.997 229.248 379.773 227.902 379.773 227.902L375.951 223.12C375.951 223.12 373.088 229.248 356.461 225.988C339.835 222.727 331.446 220.821 331.446 220.821Z" fill="#263238" stroke="#263238" stroke-linecap="round" stroke-linejoin="round"/>
<path d="M367.571 254.704C367.571 254.704 373.689 247.431 375.784 243.218" stroke="#878787" stroke-linecap="round" stroke-linejoin="round"/>
<path d="M412.484 259.11L402.159 257.58L409.997 264.276" stroke="#878787" stroke-linecap="round" stroke-linejoin="round"/>
<path d="M375.976 230.201C375.976 230.201 369.482 238.628 367.954 242.264" stroke="#878787" stroke-linecap="round" stroke-linejoin="round"/>
<path d="M343.106 291.271L344.826 301.035" stroke="#878787" stroke-linecap="round" stroke-linejoin="round"/>
<path d="M332.014 230.201C336.219 232.419 340.819 233.786 345.552 234.222C353.581 234.991 366.193 233.269 371.168 231.162C376.143 229.056 377.845 227.334 377.845 227.334L375.934 223.154C375.934 223.154 368.096 228.512 358.731 228.897C349.366 229.281 339.05 226.213 337.331 225.645C335.611 225.076 331.596 223.538 331.596 223.538L332.014 230.201Z" fill="white" stroke="#263238" stroke-linecap="round" stroke-linejoin="round"/>
<path d="M358.773 228.863L359.541 233.453L365.659 232.5L364.699 227.517L358.773 228.863Z" fill="white" stroke="#263238" stroke-linecap="round" stroke-linejoin="round"/>
<path d="M358.773 228.863C354.419 229.747 350.139 230.963 345.969 232.5C340.043 234.799 334.693 235.367 337.748 238.243C340.803 241.119 359.541 233.453 359.541 233.453L358.773 228.863Z" fill="white" stroke="#263238" stroke-linecap="round" stroke-linejoin="round"/>
<path d="M331.638 223.505C331.638 223.505 343.866 230.778 356.862 229.816C369.857 228.855 375.976 223.128 375.976 223.128C375.976 223.128 371.009 195.54 372.153 187.707C373.296 179.874 374.657 164.165 373.689 161.482C372.72 158.798 345.777 156.466 341.971 157.302C338.165 158.138 334.326 191.193 332.606 198.266C330.887 205.338 331.638 223.505 331.638 223.505Z" fill="#B0B0B0" stroke="#263238" stroke-linecap="round" stroke-linejoin="round"/>
<path d="M355.526 169.332C360.486 169.332 364.507 165.087 364.507 159.852C364.507 154.616 360.486 150.371 355.526 150.371C350.566 150.371 346.545 154.616 346.545 159.852C346.545 165.087 350.566 169.332 355.526 169.332Z" fill="white" stroke="#263238" stroke-linecap="round" stroke-linejoin="round"/>
<path d="M347.405 155.496C347.405 155.496 342.464 174.473 339.718 187.941C336.972 201.409 332.581 233.721 331.371 232.483C330.161 231.246 328.867 231.522 326.705 229.975C324.543 228.429 326.021 225.712 325.194 224.617C324.368 223.521 320.804 220.211 320.253 218.564C319.702 216.917 321.355 211.14 321.764 210.731C322.173 210.321 330.528 174.498 330.528 174.498C330.528 174.498 320.103 165.144 318.008 161.298C315.913 157.452 310.187 150.99 310.187 150.99C310.187 150.99 300.605 141.092 297.141 136.686C293.677 132.28 283.553 114.691 283.553 114.691C281.78 113.991 280.08 113.117 278.478 112.083C277.346 111.129 276.413 109.962 275.732 108.647L278.612 101.908C278.612 101.908 276.417 100.671 275.874 100.805C275.331 100.939 273.946 102.87 272.853 103.422C271.759 103.973 270.24 103.555 271.475 101.908C272.711 100.262 273.812 98.0545 274.906 97.5111C275.999 96.9677 281.909 99.7098 283.553 102.184C285.197 104.659 293.026 115.243 293.026 115.243C293.026 115.243 312.791 137.514 315.404 139.303C318.016 141.092 319.11 140.139 321.714 143.566C324.318 146.994 331.187 151.926 331.187 151.926C331.187 151.926 331.187 150.137 335.436 151.232C339.008 151.996 342.637 152.457 346.287 152.612C346.707 152.954 347.031 153.4 347.227 153.906C347.423 154.411 347.484 154.959 347.405 155.496Z" fill="white" stroke="#263238" stroke-linecap="round" stroke-linejoin="round"/>
<path d="M347.405 155.496C347.487 154.962 347.43 154.415 347.238 153.91C347.047 153.404 346.727 152.957 346.312 152.612C342.663 152.457 339.033 151.995 335.461 151.233C331.212 150.137 331.212 151.926 331.212 151.926C331.212 151.926 324.343 146.977 321.739 143.566C319.135 140.156 318.033 141.058 315.429 139.303C314.027 138.341 307.683 131.486 302.074 125.333L294.955 133.551C295.789 134.864 296.565 135.959 297.133 136.686C300.572 141.092 310.179 150.99 310.179 150.99C310.179 150.99 315.938 157.444 318 161.298C320.061 165.152 330.52 174.498 330.52 174.498C330.52 174.498 322.173 210.371 321.739 210.789C321.305 211.207 319.677 216.976 320.228 218.622C320.779 220.269 324.343 223.572 325.169 224.675C325.996 225.779 324.485 228.521 326.68 230.034C328.875 231.547 330.111 231.271 331.346 232.542C332.581 233.813 336.972 201.476 339.693 188C342.414 174.523 347.405 155.496 347.405 155.496Z" fill="#EC5E48" stroke="#263238" stroke-linecap="round" stroke-linejoin="round"/>
<path d="M275.899 100.805C275.899 100.805 272.502 106.707 273.462 107.936C274.422 109.165 276.483 110.829 277.034 110.277C277.585 109.725 280.148 104.659 280.148 103.589C280.148 102.519 277.109 100.262 275.899 100.805Z" fill="white" stroke="#263238" stroke-linecap="round" stroke-linejoin="round"/>
<path d="M275.048 102.519C275.048 102.519 277.994 105.027 279.688 105.369L275.048 102.519Z" fill="white"/>
<path d="M275.048 102.519C275.048 102.519 277.994 105.027 279.688 105.369" stroke="#263238" stroke-linecap="round" stroke-linejoin="round"/>
<path d="M273.57 105.336C273.57 105.336 275.757 108.128 278.27 108.404L273.57 105.336Z" fill="white"/>
<path d="M273.57 105.336C273.57 105.336 275.757 108.128 278.27 108.404" stroke="#263238" stroke-linecap="round" stroke-linejoin="round"/>
<path d="M287.426 109.257C287.426 109.257 284.922 102.678 283.962 101.474C283.002 100.27 280.707 98.9657 279.997 97.4359C279.288 95.906 277.593 95.0951 277.385 96.9343C277.176 98.7735 279.363 101.892 279.58 102.176C279.797 102.46 279.154 105.787 280.915 108.27C282.677 110.753 284.254 110.962 284.254 110.962" fill="white"/>
<path d="M287.426 109.257C287.426 109.257 284.922 102.678 283.962 101.474C283.002 100.27 280.707 98.9657 279.997 97.4359C279.288 95.906 277.593 95.0951 277.385 96.9343C277.176 98.7735 279.363 101.892 279.58 102.176C279.797 102.46 279.154 105.787 280.915 108.27C282.677 110.753 284.254 110.962 284.254 110.962" stroke="#263238" stroke-linecap="round" stroke-linejoin="round"/>
<path d="M345.035 152.344C345.035 152.344 339.309 162.301 337.289 165.336C335.269 168.37 334.593 169.223 336.112 169.725C337.631 170.226 340.828 166.857 341.496 168.053C342.163 169.248 342.848 173.453 342.848 173.453L347.397 156.917C347.397 156.917 347.221 151.676 345.035 152.344Z" fill="#EC5E48" stroke="#263238" stroke-linecap="round" stroke-linejoin="round"/>
<path d="M333.074 158.589L330.52 174.49L328.191 153.021" stroke="#263238" stroke-linecap="round" stroke-linejoin="round"/>
<path d="M322.557 152.445L321.113 148.465" stroke="#263238" stroke-linecap="round" stroke-linejoin="round"/>
<path d="M330.52 174.498L323.492 155.036" stroke="#263238" stroke-linecap="round" stroke-linejoin="round"/>
<path d="M329.46 205.531L330.378 201.443" stroke="#263238" stroke-linecap="round" stroke-linejoin="round"/>
<path d="M325.169 224.675L328.441 210.078" stroke="#263238" stroke-linecap="round" stroke-linejoin="round"/>
<path d="M363.731 156.566C363.898 155.889 365.4 162.978 365.584 172.091C365.768 181.203 367.253 203.131 368.614 209.201C369.974 215.27 378.054 230.101 378.054 230.101L392.202 218.622C392.202 218.622 384.79 206.308 385.124 196.886C385.457 187.465 385.29 173.947 385.29 173.947L407.868 153.699C412.555 150.068 416.6 145.677 419.837 140.707C425.229 132.439 436.681 118.971 436.681 118.971C436.681 118.971 441.405 118.971 442.749 117.784C443.796 116.641 444.642 115.33 445.253 113.905C445.253 113.905 441.914 106.147 440.871 105.98C439.828 105.813 433.968 110.536 433.292 112.216C432.616 113.897 431.272 116.438 431.272 116.438C431.272 116.438 406.675 134.997 404.997 137.698C403.319 140.398 401.792 142.588 401.792 142.588L389.664 150.856C389.664 150.856 388.829 150.02 385.282 151.692C381.735 153.364 375.007 154.56 375.007 154.56C375.007 154.56 372.311 152.537 370.834 152.537C369.357 152.537 363.255 152.871 363.255 152.871L363.731 156.566Z" fill="white" stroke="#263238" stroke-linecap="round" stroke-linejoin="round"/>
<path d="M405.005 137.673C403.336 140.373 401.8 142.563 401.8 142.563L389.672 150.831C389.672 150.831 388.838 149.995 385.29 151.667C381.743 153.339 375.016 154.535 375.016 154.535C375.016 154.535 372.32 152.512 370.842 152.512C369.365 152.512 363.264 152.846 363.264 152.846L363.764 156.558C363.931 155.881 365.434 162.97 365.617 172.082C365.801 181.195 367.287 203.123 368.647 209.192C370.008 215.262 378.087 230.092 378.087 230.092L392.235 218.614C392.235 218.614 384.823 206.3 385.157 196.878C385.491 187.456 385.324 173.938 385.324 173.938L407.902 153.69C412.575 150.06 416.609 145.671 419.837 140.707C420.747 139.311 421.832 137.773 423.001 136.168L416.59 127.758C410.973 132.18 405.748 136.477 405.005 137.673Z" fill="#EC5E48" stroke="#263238" stroke-linecap="round" stroke-linejoin="round"/>
<path d="M366.594 153.531C366.594 153.531 368.956 160.278 370.809 164.834C372.662 169.39 374.006 172.759 371.986 173.102C369.966 173.445 368.447 170.736 367.813 170.904C367.041 171.221 366.306 171.619 365.617 172.091C365.617 172.091 365.284 165.001 365.284 163.313C365.284 161.624 363.264 152.854 363.264 152.854L366.594 153.531Z" fill="#EC5E48" stroke="#263238" stroke-linecap="round" stroke-linejoin="round"/>
<path d="M378.179 207.203C377.936 208.703 377.78 210.216 377.712 211.734" stroke="#263238" stroke-linecap="round" stroke-linejoin="round"/>
<path d="M388.663 153.866L385.324 173.93C385.324 173.93 380.666 192.706 378.647 204.435" stroke="#263238" stroke-linecap="round" stroke-linejoin="round"/>
<path d="M395.089 154.175L396.75 150.831" stroke="#263238" stroke-linecap="round" stroke-linejoin="round"/>
<path d="M385.29 173.947L393.278 157.828" stroke="#263238" stroke-linecap="round" stroke-linejoin="round"/>
<path d="M443.408 106.456C443.408 106.456 446.839 113.88 445.912 115.117C444.986 116.355 442.891 118.01 442.34 117.458C441.789 116.906 439.185 110.31 439.185 109.207C439.185 108.103 442.173 105.905 443.408 106.456Z" fill="white" stroke="#263238" stroke-linecap="round" stroke-linejoin="round"/>
<path d="M444.393 108.605C444.393 108.605 440.429 111.113 439.444 111.23L444.393 108.605Z" fill="white"/>
<path d="M444.393 108.605C444.393 108.605 440.429 111.113 439.444 111.23" stroke="#263238" stroke-linecap="round" stroke-linejoin="round"/>
<path d="M445.236 110.87C445.236 110.87 442.273 113.211 440.57 113.378L445.236 110.87Z" fill="white"/>
<path d="M445.236 110.87C445.236 110.87 442.273 113.211 440.57 113.378" stroke="#263238" stroke-linecap="round" stroke-linejoin="round"/>
<path d="M445.804 113.136C444.634 114.553 443.053 115.569 441.28 116.045L445.804 113.136Z" fill="white"/>
<path d="M445.804 113.136C444.634 114.553 443.053 115.569 441.28 116.045" stroke="#263238" stroke-linecap="round" stroke-linejoin="round"/>
<path d="M431.882 114.908C431.882 114.908 434.386 108.321 435.345 107.117C436.305 105.913 438.592 104.609 439.302 103.087C440.011 101.566 441.706 100.746 441.914 102.586C442.123 104.425 439.936 107.543 439.727 107.827C439.519 108.112 440.153 111.439 438.384 113.922C436.614 116.405 435.045 116.605 435.045 116.605" fill="white"/>
<path d="M431.882 114.908C431.882 114.908 434.386 108.321 435.345 107.117C436.305 105.913 438.592 104.609 439.302 103.087C440.011 101.566 441.706 100.746 441.914 102.586C442.123 104.425 439.936 107.543 439.727 107.827C439.519 108.112 440.153 111.439 438.384 113.922C436.614 116.405 435.045 116.605 435.045 116.605" stroke="#263238" stroke-linecap="round" stroke-linejoin="round"/>
<path d="M341.095 137.38C341.095 137.38 339.426 135.039 338.891 138.751C338.357 142.463 339.033 145.623 340.269 146.451C341.022 146.952 341.877 147.281 342.773 147.412C342.773 147.412 344.692 153.732 345.519 155.245C346.345 156.758 351.144 163.221 354.984 163.906C358.823 164.592 361.302 162.811 363.222 160.061C365.142 157.31 366.794 151.124 367.203 149.886C367.549 148.665 367.828 147.426 368.038 146.175C368.038 146.175 371.193 143.148 370.784 139.579C370.375 136.009 368.998 136.41 368.998 136.41C368.998 136.41 366.661 138.082 365.659 138.199C364.658 138.316 360.584 135.449 356.737 135.691C352.889 135.934 346.721 138.032 345.485 138.199C344.25 138.366 341.095 137.38 341.095 137.38Z" fill="white" stroke="#263238" stroke-linecap="round" stroke-linejoin="round"/>
<path d="M360.576 141.635C360.576 141.635 358.239 142.471 358.381 143.7C358.523 144.929 359.216 151.4 358.514 152.771C357.813 154.142 354.533 152.637 354.533 152.637" stroke="#263238" stroke-linecap="round" stroke-linejoin="round"/>
<path d="M353.064 154.969C353.064 154.969 355.259 157.477 357.454 156.758C358.883 156.253 360.159 155.389 361.16 154.25" stroke="#263238" stroke-linecap="round" stroke-linejoin="round"/>
<path d="M352.346 146.584C352.346 147.646 351.946 148.515 351.453 148.515C350.961 148.515 350.56 147.679 350.56 146.584C350.56 145.489 350.961 144.661 351.453 144.661C351.946 144.661 352.346 145.523 352.346 146.584Z" fill="#263238"/>
<path d="M361.202 148.231C361.695 148.231 362.095 147.37 362.095 146.308C362.095 145.246 361.695 144.386 361.202 144.386C360.709 144.386 360.309 145.246 360.309 146.308C360.309 147.37 360.709 148.231 361.202 148.231Z" fill="#263238"/>
<path d="M348.64 142.463C348.64 142.463 350.426 140.398 353.448 142.187" stroke="#263238" stroke-linecap="round" stroke-linejoin="round"/>
<path d="M341.095 137.38C341.095 137.38 341.779 140.122 343.974 141.226C346.17 142.329 354.132 135.867 357.838 138.065C361.544 140.264 363.189 141.359 365.25 141.359C367.312 141.359 368.956 137.238 368.956 136.41C368.956 135.583 368.956 126.788 366.894 123.218C364.833 119.648 358.932 114.691 353.715 115.794C348.498 116.898 340.402 122.533 339.993 125.551C339.584 128.568 341.095 137.38 341.095 137.38Z" fill="#263238" stroke="#263238" stroke-linecap="round" stroke-linejoin="round"/>
<path d="M343.048 137.104C343.048 137.104 347.847 131.879 354.441 131.879C361.035 131.879 367.036 135.432 367.036 135.432" stroke="#878787" stroke-linecap="round" stroke-linejoin="round"/>
<path d="M266.484 300.124C266.484 300.124 265.057 314.787 263.262 323.173C261.468 331.558 251.535 365.809 251.535 365.809C251.535 365.809 253.129 372.196 255.525 375.189C257.92 378.181 259.106 379.979 259.106 382.177C259.106 384.376 259.106 386.767 256.318 387.963C253.53 389.158 247.353 389.76 245.158 386.968C242.963 384.176 243.364 376.986 243.163 374.595C242.963 372.204 241.569 368.4 241.97 366.235C242.371 364.07 243.364 362.841 243.764 360.843C244.165 358.845 247.353 335.094 247.938 328.506C248.367 324.202 249.1 319.933 250.133 315.732C250.133 315.732 246.944 301.562 246.744 300.567C246.544 299.572 266.484 300.124 266.484 300.124Z" fill="white" stroke="#263238" stroke-linecap="round" stroke-linejoin="round"/>
<path d="M245.158 386.918C247.353 389.71 253.505 389.116 256.318 387.912C259.131 386.709 259.106 384.326 259.106 382.127C259.106 379.929 257.912 378.131 255.525 375.138C253.138 372.145 251.535 365.758 251.535 365.758C251.991 363.632 252.576 361.535 253.288 359.48C251.75 360.01 250.097 360.111 248.506 359.773C246.915 359.434 245.446 358.668 244.257 357.557C244.015 359.229 243.84 360.391 243.764 360.767C243.364 362.766 242.371 363.961 241.97 366.16C241.569 368.358 242.963 372.145 243.163 374.52C243.364 376.894 242.963 384.125 245.158 386.918Z" fill="#263238" stroke="#263238" stroke-linecap="round" stroke-linejoin="round"/>
<path d="M243.163 374.528C243.364 376.919 242.963 384.109 245.158 386.901C247.353 389.693 253.505 389.099 256.318 387.896C259.131 386.692 259.106 384.309 259.106 382.111C259.106 379.912 257.912 378.114 255.525 375.122C253.138 372.129 251.535 365.742 251.535 365.742C251.535 365.742 250.742 364.145 249.34 364.747C247.938 365.349 245.96 366.344 245.96 366.344C245.117 364.525 244.384 362.657 243.764 360.751C243.364 362.749 242.371 363.944 241.97 366.143C241.569 368.342 242.963 372.145 243.163 374.528Z" fill="white" stroke="#263238" stroke-linecap="round" stroke-linejoin="round"/>
<path d="M248.656 385.012C244.482 383.298 243.355 376.56 243.355 376.56L243.239 376.601C243.314 379.761 243.422 384.711 245.158 386.918C247.353 389.71 253.505 389.116 256.318 387.912C259.131 386.709 259.106 384.326 259.106 382.127C256.685 384.97 252.804 386.734 248.656 385.012Z" fill="#EC5E48" stroke="#263238" stroke-linecap="round" stroke-linejoin="round"/>
<path d="M222.439 295.3C222.439 295.3 224.834 314.06 224.834 321.843C224.834 329.626 223.999 334.617 226.428 344.415C228.857 354.213 231.011 365.775 231.011 365.775C229.764 368.998 228.3 372.132 226.629 375.155C224.888 378.109 224.055 381.511 224.233 384.936C224.169 386.092 224.545 387.229 225.286 388.119C226.026 389.008 227.076 389.582 228.223 389.726C231.411 390.328 236.194 390.128 238.18 385.739C240.167 381.35 239.574 379.544 239.775 375.556C239.849 371.888 239.651 368.219 239.182 364.58C238.982 362.983 238.982 339.031 238.781 328.632C238.581 318.232 239.382 300.291 239.382 300.291L222.439 295.3Z" fill="white" stroke="#263238" stroke-linecap="round" stroke-linejoin="round"/>
<path d="M229.233 356.922C230.293 361.98 231.011 365.758 231.011 365.758C229.764 368.981 228.3 372.115 226.629 375.138C224.888 378.092 224.055 381.494 224.233 384.92C224.169 386.076 224.545 387.213 225.286 388.102C226.026 388.991 227.076 389.566 228.223 389.71C231.411 390.312 236.194 390.111 238.18 385.722C240.167 381.333 239.583 379.527 239.775 375.54C239.849 371.871 239.651 368.202 239.182 364.563C239.115 364.036 239.074 361.085 239.032 356.997C235.217 358.468 231.278 357.591 229.233 356.922Z" fill="#263238" stroke="#263238" stroke-linecap="round" stroke-linejoin="round"/>
<path d="M237.788 367.756C237.074 366.203 235.788 364.987 234.199 364.362C232.204 363.526 231.011 365.758 231.011 365.758C229.764 368.981 228.3 372.115 226.629 375.138C224.888 378.092 224.055 381.494 224.233 384.92C224.169 386.076 224.545 387.213 225.286 388.102C226.026 388.991 227.076 389.566 228.223 389.71C231.411 390.312 236.194 390.111 238.18 385.722C240.167 381.333 239.583 379.527 239.775 375.54C239.849 371.871 239.651 368.202 239.182 364.563C237.98 366.168 238.181 368.751 237.788 367.756Z" fill="white" stroke="#263238" stroke-linecap="round" stroke-linejoin="round"/>
<path d="M238.18 385.722C240.175 381.325 239.583 379.527 239.775 375.54C237.388 381.726 236.194 383.724 231.428 384.736C230.105 385.031 228.721 384.877 227.494 384.299C226.268 383.721 225.267 382.751 224.651 381.542H224.408C224.268 382.673 224.215 383.814 224.25 384.953C224.186 386.109 224.562 387.246 225.303 388.135C226.043 389.024 227.093 389.599 228.24 389.743C231.411 390.312 236.211 390.111 238.18 385.722Z" fill="#EC5E48" stroke="#263238" stroke-linecap="round" stroke-linejoin="round"/>
<path d="M221.245 255.381C221.245 255.381 216.237 271.349 215.069 281.13C213.9 290.911 212.673 299.288 212.673 299.288C212.673 299.288 218.057 301.085 224.634 302.682C231.211 304.279 242.162 302.883 242.162 302.883C242.162 302.883 250.926 305.082 258.705 304.279C264.272 303.62 269.794 302.62 275.24 301.286C275.24 301.286 272.051 272.143 271.459 265.756C271.208 262.456 270.675 259.184 269.864 255.975L221.245 255.381Z" fill="#263238" stroke="#263238" stroke-linecap="round" stroke-linejoin="round"/>
<path d="M242.17 302.883L244.958 272.544" stroke="#878787" stroke-linecap="round" stroke-linejoin="round"/>
<path d="M249.565 267.52L244.983 276.9C244.983 276.9 250.959 299.472 250.767 300.258" stroke="#878787" stroke-linecap="round" stroke-linejoin="round"/>
<path d="M259.306 273.146L260.7 261.167L263.696 271.55" stroke="#878787" stroke-linecap="round" stroke-linejoin="round"/>
<path d="M231.411 261.167C231.411 261.167 227.238 291.706 227.021 299.689" stroke="#878787" stroke-linecap="round" stroke-linejoin="round"/>
<path d="M264.289 274.342C264.289 274.342 265.883 283.538 265.883 287.517" stroke="#878787" stroke-linecap="round" stroke-linejoin="round"/>
<path d="M222.681 250.625C222.681 250.625 219.451 256.777 220.444 257.379C221.437 257.981 232.204 261.166 245.96 261.166C259.715 261.166 270.465 258.976 270.666 257.973C270.866 256.97 268.379 252.489 268.379 252.489L243.564 249.195L222.681 250.625Z" fill="#EC5E48" stroke="#263238" stroke-linecap="round" stroke-linejoin="round"/>
<path d="M251.652 176.613C251.652 176.613 250.074 180.936 251.018 183.811C251.961 186.687 254.899 187.782 259.707 187.941C264.514 188.1 271.784 187.314 271.475 193.676C271.166 200.038 265.432 234.18 265.282 234.958C265.132 235.735 268.996 248.61 269.155 250.165C269.314 251.72 269.464 252.021 268.379 252.489C267.294 252.957 254.44 252.957 243.439 253.107C232.438 253.258 222.831 251.093 222.681 250.599C222.53 250.106 223.607 246.419 223.607 246.419L226.554 233.386C226.554 233.386 217.723 234.473 216.479 234.473C215.235 234.473 213.975 224.851 214.468 220.353C214.96 215.855 217.097 192.89 218.34 191.486C219.584 190.081 228.724 189.63 232.747 188.234C236.77 186.838 237.863 186.211 237.863 183.268V173.353L251.026 174.281L251.652 176.613Z" fill="#EC5E48" stroke="#263238" stroke-linecap="round" stroke-linejoin="round"/>
<path d="M257.253 188.752C254.206 188.2 252.286 186.98 251.543 184.706C250.542 181.638 252.211 177.04 252.211 177.04L251.552 174.532L237.546 173.537V184.104C237.546 187.239 236.394 187.899 232.112 189.387C232.112 189.387 236.887 197.145 246.302 196.978C251.961 196.911 255.408 192.347 257.253 188.752Z" fill="#263238" stroke="#263238" stroke-linecap="round" stroke-linejoin="round"/>
<path d="M256.151 149.243C256.151 149.243 259.773 155.931 259.773 156.767C259.773 157.603 259.189 160.111 259.623 160.546C260.057 160.98 264.698 162.435 264.122 163.739C263.546 165.043 262.236 167.802 262.236 167.802C262.236 167.802 262.236 175.786 261.651 177.24C261.067 178.695 251.952 178.076 249.774 177.6C247.596 177.123 240.776 169.833 240.776 169.833L239.474 160.83C239.474 160.83 243.531 151.249 246.869 150.672C250.208 150.096 256.151 149.243 256.151 149.243Z" fill="white" stroke="#263238" stroke-linecap="round" stroke-linejoin="round"/>
<path d="M257.019 167.827C258.028 168.707 259.305 169.219 260.641 169.282" stroke="#263238" stroke-linecap="round" stroke-linejoin="round"/>
<path d="M259.773 156.792C259.773 156.792 262.377 156.215 262.67 156.65C262.962 157.084 262.67 159.994 261.943 161.147C261.217 162.301 259.623 160.571 259.623 160.571L259.773 156.792Z" fill="#263238" stroke="#263238" stroke-linecap="round" stroke-linejoin="round"/>
<path d="M258.613 157.377C257.355 157.349 256.11 157.636 254.991 158.213C252.812 159.225 252.954 160.537 253.68 160.537C254.406 160.537 254.114 163.045 255.133 163.296C256.151 163.547 258.321 163.731 259.306 162.134C260.291 160.537 261.368 156.65 258.613 157.377Z" fill="#263238" stroke="#263238" stroke-linecap="round" stroke-linejoin="round"/>
<path d="M253.83 158.974L245.133 162.602L253.68 160.571L253.83 158.974Z" fill="#263238" stroke="#263238" stroke-linecap="round" stroke-linejoin="round"/>
<path d="M253.83 156.792C253.83 156.792 255.425 154.76 257.595 155.78" stroke="#263238" stroke-linecap="round" stroke-linejoin="round"/>
<path d="M257.954 148.097C257.802 148.9 257.42 149.64 256.853 150.227C256.286 150.813 255.561 151.221 254.765 151.4C252.261 152.102 249.115 152.779 248.989 156.006C248.789 160.913 249.582 164.458 250.559 165.043C251.535 165.628 255.859 168.588 253.697 172.709C251.535 176.831 249.774 177.625 249.774 177.625C249.774 177.625 255.667 179.004 251.543 184.706C247.42 190.407 241.92 189.229 239.174 187.256C236.428 185.283 235.05 184.706 232.697 186.077C230.343 187.448 222.497 186.278 221.512 180.969C220.527 175.66 226.971 174.03 225.994 170.293C225.018 166.556 223.833 157.126 225.602 153.389C227.063 150.296 233.339 145.581 236.269 144.361C238.741 143.229 241.431 142.658 244.148 142.689C246.544 142.797 248.756 143.759 251.151 143.976C253.547 144.193 258.279 144.628 257.954 148.097Z" fill="white" stroke="#263238" stroke-linecap="round" stroke-linejoin="round"/>
<path d="M242.546 175.736C240.409 176.572 238.214 177.224 237.421 179.08C235.852 182.783 239.833 188.2 245.1 186.913C250.367 185.625 248.088 180.225 246.527 180.359C244.966 180.492 242.679 181.78 243.539 182.641" stroke="#263238" stroke-linecap="round" stroke-linejoin="round"/>
<path d="M249.373 148.465C249.373 148.465 244.365 151.458 243.397 155.02C242.429 158.581 248.514 165.996 247.237 171.271C247.064 171.998 246.742 172.681 246.293 173.276C245.843 173.872 245.275 174.368 244.624 174.732" stroke="#263238" stroke-linecap="round" stroke-linejoin="round"/>
<path d="M228.774 184.664C229.432 184.989 230.156 185.157 230.89 185.157C231.623 185.157 232.347 184.989 233.006 184.664" stroke="#263238" stroke-linecap="round" stroke-linejoin="round"/>
<path d="M233.206 152.495C232.941 153.111 232.824 153.781 232.864 154.451C233.147 159.016 237.872 166.991 236.845 169.984C235.818 172.977 225.894 173.98 225.61 178.394C225.532 179.346 225.651 180.304 225.959 181.207C226.268 182.111 226.76 182.94 227.405 183.644" stroke="#263238" stroke-linecap="round" stroke-linejoin="round"/>
<path d="M239.833 146.902C237.99 147.698 236.296 148.804 234.825 150.171" stroke="#263238" stroke-linecap="round" stroke-linejoin="round"/>
<path d="M253.972 217.419C254.404 217.138 254.896 216.964 255.409 216.91C255.921 216.856 256.438 216.924 256.919 217.109C258.588 217.728 263.271 220.988 263.271 220.988C263.271 220.988 259.097 221.456 257.378 223.312C255.658 225.168 251.802 223.939 251.802 223.939L253.972 217.419Z" fill="white" stroke="#263238" stroke-linecap="round" stroke-linejoin="round"/>
<path d="M266.985 188.71C268.255 188.338 269.607 188.345 270.873 188.731C272.139 189.117 273.265 189.865 274.113 190.884C277.059 194.454 274.58 225.335 274.422 230.176C274.263 235.016 273.337 236.387 272.56 237.006C271.784 237.625 267.761 240.108 252.578 237.783L237.396 235.451L238.79 228.47C238.79 228.47 248.706 225.369 251.802 223.973C253.536 223.137 255.502 222.916 257.378 223.346C257.332 222.978 257.397 222.606 257.563 222.275C257.73 221.945 257.99 221.671 258.313 221.49C259.123 221.116 259.96 220.803 260.817 220.553C261.502 220.337 262.173 220.08 262.828 219.784L267.168 200.381" fill="#EC5E48"/>
<path d="M266.985 188.71C268.255 188.338 269.607 188.345 270.873 188.731C272.139 189.117 273.265 189.865 274.113 190.884C277.059 194.454 274.58 225.335 274.422 230.176C274.263 235.016 273.337 236.387 272.56 237.006C271.784 237.625 267.761 240.108 252.578 237.783L237.396 235.451L238.79 228.47C238.79 228.47 248.706 225.369 251.802 223.973C253.536 223.137 255.502 222.916 257.378 223.346C257.332 222.978 257.397 222.606 257.563 222.275C257.73 221.945 257.99 221.671 258.313 221.49C259.123 221.116 259.96 220.803 260.817 220.553C261.502 220.337 262.173 220.08 262.828 219.784L267.168 200.381" stroke="#263238" stroke-linecap="round" stroke-linejoin="round"/>
<path d="M217.255 195.231C217.012 196.959 216.649 198.669 216.17 200.347C215.703 201.434 213.666 220.829 213.666 225.177C213.666 229.524 214.443 236.504 215.219 237.591C215.995 238.678 222.355 239.982 225.769 239.205C229.183 238.427 240.184 233.244 242.195 231.572C244.207 229.9 254.281 222.577 254.281 222.577C254.793 221.741 255.01 220.758 254.899 219.784C254.904 218.916 254.572 218.079 253.972 217.452C253.73 217.204 253.44 217.008 253.12 216.874C252.801 216.741 252.457 216.673 252.111 216.674C251.185 216.833 236.62 221.95 234.758 222.418C232.897 222.886 227.639 222.886 227.639 222.886C227.639 222.886 228.724 214.041 227.48 208.607C226.236 203.173 225.31 199.762 225.31 199.762" fill="#EC5E48"/>
<path d="M217.255 195.231C217.012 196.959 216.649 198.669 216.17 200.347C215.703 201.434 213.666 220.829 213.666 225.177C213.666 229.524 214.443 236.504 215.219 237.591C215.995 238.678 222.355 239.982 225.769 239.205C229.183 238.427 240.184 233.244 242.195 231.572C244.207 229.9 254.281 222.577 254.281 222.577C254.793 221.741 255.01 220.758 254.899 219.784C254.904 218.916 254.572 218.079 253.972 217.452C253.73 217.204 253.44 217.008 253.12 216.874C252.801 216.741 252.457 216.673 252.111 216.674C251.185 216.833 236.62 221.95 234.758 222.418C232.897 222.886 227.639 222.886 227.639 222.886C227.639 222.886 228.724 214.041 227.48 208.607C226.236 203.173 225.31 199.762 225.31 199.762" stroke="#263238" stroke-linecap="round" stroke-linejoin="round"/>
<path d="M227.639 222.853C227.639 222.853 220.819 225.026 219.292 226.422C218.387 227.283 217.698 228.346 217.28 229.524" stroke="#263238" stroke-linecap="round" stroke-linejoin="round"/>
<path d="M257.378 223.312C258.195 224.964 259.361 226.418 260.795 227.573C262.229 228.728 263.897 229.556 265.683 230" stroke="#263238" stroke-linecap="round" stroke-linejoin="round"/>
<path d="M263.271 220.988C263.271 220.988 266.876 222.844 268.471 222.844" stroke="#263238" stroke-linecap="round" stroke-linejoin="round"/>
<path d="M215.661 226.64C215.661 226.64 215.661 224.842 218.457 223.446C221.253 222.05 224.834 223.045 224.834 223.045" stroke="#263238" stroke-linecap="round" stroke-linejoin="round"/>
<path d="M126.36 142.655L125.667 153.398C125.667 153.398 131.894 160.152 132.587 162.752C133.28 165.352 136.051 174.891 136.76 172.634C137.47 170.377 136.41 164.14 136.927 162.41C137.445 160.679 139.356 151.14 139.356 151.14C137.005 150.485 134.739 149.556 132.603 148.373C130.208 146.81 126.36 142.655 126.36 142.655Z" fill="white" stroke="#263238" stroke-linecap="round" stroke-linejoin="round"/>
<path d="M138.296 152.277L129.165 154.752L125.667 153.398L126.694 144.62L138.296 152.277Z" fill="#263238" stroke="#263238" stroke-linecap="round" stroke-linejoin="round"/>
<path d="M123.589 136.268C123.589 136.268 124.424 135.056 123.589 130.725C122.754 126.395 119.608 125.35 122.204 120.325C124.799 115.301 131.552 112.877 131.552 112.877C131.552 112.877 129.991 109.583 131.201 108.697C132.412 107.811 135.183 110.084 135.533 110.778C135.884 111.472 135.183 104.015 137.086 104.015C138.989 104.015 144.18 109.867 144.18 111.815C144.18 113.763 146.083 107.309 148.162 109.048C150.24 110.787 151.1 115.284 150.24 116.497C149.38 117.709 152.485 115.661 153.003 118.06C153.24 119.433 153.178 120.841 152.82 122.187C152.463 123.533 151.819 124.786 150.933 125.86C149.03 128.284 147.644 128.46 147.644 128.46C147.644 128.46 144.005 122.608 140.199 122.733C136.393 122.859 132.412 123.427 132.412 125.166C132.48 125.999 132.36 126.836 132.061 127.616C131.761 128.396 131.291 129.099 130.684 129.672C129.131 131.403 128.956 133.651 128.088 135.733C127.22 137.815 128.263 139.378 126.185 138.684C125.597 138.505 125.058 138.195 124.608 137.776C124.159 137.358 123.81 136.842 123.589 136.268Z" fill="#263238" stroke="#263238" stroke-linecap="round" stroke-linejoin="round"/>
<path d="M125.843 136.067C125.843 136.067 122.729 130.215 121.344 134.328C119.958 138.442 121.511 139.88 122.179 140.741C122.802 141.349 123.582 141.772 124.432 141.961C124.432 141.961 126.16 146.977 127.545 148.198C128.931 149.418 131.351 153.573 137.753 153.047C140.767 152.804 144.155 150.973 145.716 146.292C147.277 141.61 147.269 139.01 147.794 133.292C148.32 127.574 148.137 123.41 144.155 120.986C140.174 118.562 132.737 118.904 131.176 121.161C129.615 123.419 130.834 124.28 130.342 125.492C129.849 126.704 127.053 128.786 126.878 129.998C126.702 131.21 127.228 133.116 126.878 134.178C126.632 134.857 126.283 135.495 125.843 136.067Z" fill="white" stroke="#263238" stroke-linecap="round" stroke-linejoin="round"/>
<path d="M141.935 128.267C141.935 128.267 140.55 128.786 140.725 131.21C140.9 133.635 141.559 135.198 141.242 136.226C140.925 137.254 137.778 136.753 137.778 136.753" stroke="#263238" stroke-linecap="round" stroke-linejoin="round"/>
<path d="M132.937 138.149C132.937 138.149 137.945 142.48 143.488 139.186" stroke="#263238" stroke-linecap="round" stroke-linejoin="round"/>
<path d="M136.226 129.914C136.226 130.75 135.834 131.386 135.391 131.386C134.949 131.386 134.557 130.725 134.557 129.914C134.557 129.103 134.949 128.443 135.391 128.443C135.834 128.443 136.226 129.095 136.226 129.914Z" fill="#263238"/>
<path d="M145.232 131.043C145.232 131.879 144.84 132.514 144.397 132.514C143.955 132.514 143.563 131.854 143.563 131.043C143.563 130.232 143.955 129.563 144.397 129.563C144.84 129.563 145.232 130.224 145.232 131.043Z" fill="#263238"/>
<path d="M132.762 127.072C132.762 127.072 135.358 125.509 137.77 126.896" stroke="#263238" stroke-linecap="round" stroke-linejoin="round"/>
<path d="M143.145 127.574C143.145 127.574 147.127 125.492 147.644 128.41" stroke="#263238" stroke-linecap="round" stroke-linejoin="round"/>
<path d="M151.208 174.891C151.208 174.891 153.053 177.926 154.547 181.128C156.041 184.33 167.851 197.296 167.851 197.296C167.851 197.296 169.696 190.391 170.873 186.018C172.05 181.646 173.377 173.219 173.377 173.219C173.377 173.219 172.375 169.039 172.709 167.66C173.043 166.28 173.043 162.945 174.053 162.644C175.063 162.343 183.635 165.988 183.969 167.192C184.303 168.395 184.478 170.728 183.802 171.907C183.126 173.085 179.937 177.633 179.937 177.633C179.937 177.633 180.104 202.713 179.261 206.592C178.418 210.471 176.073 213.832 174.554 214.166C173.035 214.501 150.349 208.314 148.337 207.604C146.325 206.893 151.208 174.891 151.208 174.891Z" fill="white" stroke="#263238" stroke-linecap="round" stroke-linejoin="round"/>
<path d="M174.571 214.125C176.09 213.79 178.443 210.421 179.278 206.55C179.645 203.549 179.826 200.528 179.821 197.505C173.786 197.062 170.489 195.423 168.728 194.002L167.851 197.296C167.851 197.296 156.083 184.33 154.572 181.136C153.061 177.943 151.233 174.9 151.233 174.9C151.233 174.9 146.359 206.893 148.379 207.57C150.399 208.248 173.06 214.459 174.571 214.125Z" fill="#263238" stroke="#263238" stroke-linecap="round" stroke-linejoin="round"/>
<path d="M154.731 341.74C154.731 341.74 156.684 347.768 158.069 349.724C159.455 351.68 164.98 355.576 164.621 357.173C164.262 358.769 163.386 359.681 159.304 360.015C155.223 360.349 153.103 359.304 150.273 357.507C147.444 355.71 144.957 352.892 141.927 351.655C138.897 350.418 136.259 350.418 136.785 346.514C137.311 342.61 140.124 338.705 140.124 338.705L154.731 341.74Z" fill="#263238" stroke="#263238" stroke-linecap="round" stroke-linejoin="round"/>
<path d="M141.977 351.672C144.99 352.917 147.469 355.76 150.323 357.524C153.178 359.288 155.281 360.366 159.355 360.032C163.428 359.697 164.321 358.786 164.671 357.189C164.888 356.203 162.877 354.339 160.974 352.591C157.535 352.909 154.572 356.663 154.572 356.663C151.734 355.242 147.661 352.934 144.831 350.092C142.002 347.249 136.852 346.547 136.852 346.547C136.309 350.435 138.964 350.435 141.977 351.672Z" fill="white" stroke="#263238" stroke-linecap="round" stroke-linejoin="round"/>
<path d="M149.405 341.205C149.405 341.205 153.12 345.82 154.004 347.768C154.889 349.716 158.086 349.724 158.086 349.724L154.747 341.74L149.405 341.205Z" fill="white" stroke="#263238" stroke-linecap="round" stroke-linejoin="round"/>
<path d="M104.943 341.924V358.076C104.943 363.576 107.78 368.367 111.328 368.718C114.875 369.069 118.589 369.604 118.94 362.155C119.291 354.707 117.17 346.363 117.17 345.435C117.17 344.507 104.943 341.924 104.943 341.924Z" fill="#263238" stroke="#263238" stroke-linecap="round" stroke-linejoin="round"/>
<path d="M118.94 362.147C119.029 359.915 118.954 357.68 118.715 355.459C118.448 357.791 118.055 360.893 118.055 360.893C116.562 359.846 114.728 359.404 112.922 359.656C110.771 359.98 108.715 360.767 106.896 361.963L104.943 351.153V358.059C104.943 363.56 107.78 368.35 111.328 368.701C114.875 369.052 118.589 369.596 118.94 362.147Z" fill="white" stroke="#263238" stroke-linecap="round" stroke-linejoin="round"/>
<path d="M110.084 345.109C110.084 345.109 110.084 353.804 110.969 354.69C111.854 355.576 114.308 356.111 114.516 353.452C114.529 350.84 114.35 348.23 113.982 345.644L110.084 345.109Z" fill="white" stroke="#263238" stroke-linecap="round" stroke-linejoin="round"/>
<path d="M104.417 219.375C104.417 219.375 101.228 239.514 102.464 248.568C103.699 257.622 108.841 301.988 108.841 301.988C108.841 301.988 104.767 326.65 104.417 329.668C104.066 332.686 105.302 334.283 105.302 334.994C105.302 335.704 103.532 337.301 103.532 339.073C103.603 340.68 103.779 342.28 104.058 343.864C104.058 343.864 107.397 347.208 111.678 347.208C115.96 347.208 117.521 346.672 118.231 345.427C118.94 344.181 121.068 341.347 121.244 339.399C121.419 337.451 120.534 336.557 120.893 334.96C121.357 333.33 121.711 331.671 121.953 329.994C122.312 327.327 122.663 321.827 122.663 321.827C122.663 321.827 129.398 298.226 129.574 295.559C129.749 292.893 128.864 256.167 128.864 256.167L150.833 285.628C150.833 285.628 146.759 293.077 146.584 299.112C146.409 305.148 144.631 319.519 144.28 321.684C143.93 323.85 143.037 327.896 143.037 327.896C143.037 327.896 140.733 328.782 141.092 330.914C141.451 333.046 141.626 334.818 141.626 334.818L139.673 339.959C139.673 339.959 145.341 340.67 149.422 341.205C151.181 341.476 152.953 341.654 154.731 341.74C155.598 339.887 156.367 337.99 157.034 336.055C157.393 334.634 155.615 332.862 156.325 331.441C157.034 330.019 158.103 329.133 158.103 327.896C158.103 326.659 158.278 321.325 158.278 321.325C158.278 321.325 164.479 300.918 167.459 293.821C170.439 286.723 171.182 281.573 169.963 276.607C168.745 271.641 146.067 236.32 146.067 235.794C146.067 235.267 146.426 229.758 146.426 229.758C146.426 229.758 122.679 227.099 115.059 225.854C107.438 224.608 104.417 219.375 104.417 219.375Z" fill="#B0B0B0" stroke="#263238" stroke-linecap="round" stroke-linejoin="round"/>
<path d="M128.864 256.201L136.835 248.568" stroke="#263238" stroke-linecap="round" stroke-linejoin="round"/>
<path d="M104.1 214.919C104.1 214.919 104.1 222.309 104.6 222.869C105.101 223.429 111.436 228.596 126.944 229.892C142.453 231.187 145.783 231.564 146.451 229.708C147.118 227.852 147.118 223.237 147.118 223.237C147.118 223.237 128.113 220.278 118.439 217.87C113.718 216.621 108.93 215.636 104.1 214.919Z" fill="#263238" stroke="#263238" stroke-linecap="round" stroke-linejoin="round"/>
<path d="M125.667 153.398C125.667 153.398 121.169 148.198 120.659 147.847C120.15 147.495 111.144 124.798 111.144 124.798L105.602 102.092C105.602 102.092 100.761 80.9498 100.594 78.6843C100.427 76.4187 99.0332 68.2844 99.0332 68.2844C99.0332 68.2844 102.213 58.1856 102.046 56.455C101.879 54.7245 93.0737 56.9566 91.5212 57.6505C89.9687 58.3444 92.8066 69.3545 92.8066 69.3545C92.8066 69.3545 92.1138 98.6145 92.6313 104.885C93.1488 111.155 97.3054 129.496 97.3054 129.496C97.3054 129.496 103.883 159.826 104.058 160.345C104.233 160.863 105.435 172.475 105.435 172.475L105.251 202.312C105.251 202.312 102.998 216.7 104.559 218.606C106.119 220.512 119.441 223.622 130.508 225.193C141.576 226.765 145.908 227.793 147.469 226.405C149.03 225.018 149.722 221.899 149.722 217.912C149.722 213.924 154.221 187.924 152.318 178.745C150.415 169.566 147.469 165.369 143.488 162.451C140.978 160.616 138.274 159.063 135.425 157.82L125.667 153.398Z" fill="white" stroke="#263238" stroke-linecap="round" stroke-linejoin="round"/>
<path d="M143.488 162.41C140.978 160.574 138.274 159.021 135.425 157.778L125.667 153.398C125.667 153.398 121.169 148.198 120.659 147.847C120.15 147.495 111.144 124.798 111.144 124.798L105.602 102.092C105.602 102.092 105.085 99.8518 104.392 96.7502C100.669 98.5089 96.5006 99.092 92.4393 98.4222C92.4393 101.256 92.5145 103.564 92.623 104.868C93.1405 111.104 97.2971 129.48 97.2971 129.48C97.2971 129.48 103.874 159.81 104.05 160.328C104.225 160.846 105.427 172.458 105.427 172.458L105.251 202.312C105.251 202.312 102.998 216.7 104.559 218.606C106.12 220.512 119.441 223.622 130.508 225.193C141.576 226.765 145.908 227.793 147.469 226.405C149.03 225.018 149.723 221.899 149.723 217.912C149.723 213.924 154.221 187.924 152.318 178.745C150.415 169.566 147.469 165.352 143.488 162.41Z" fill="#EC5E48" stroke="#263238" stroke-linecap="round" stroke-linejoin="round"/>
<path d="M115.076 212.043C124.341 207.992 132.819 202.332 140.116 195.323" stroke="#263238" stroke-linecap="round" stroke-linejoin="round"/>
<path d="M107.672 214.852C107.672 214.852 108.799 214.518 110.71 213.799" stroke="#263238" stroke-linecap="round" stroke-linejoin="round"/>
<path d="M113.465 220.119C113.465 220.119 117.596 218.748 123.915 211.859" stroke="#263238" stroke-linecap="round" stroke-linejoin="round"/>
<path d="M97.3472 52.8519C97.3472 52.8519 90.1523 55.6191 89.9938 57.0904C89.8352 58.5618 90.144 61.028 90.8702 61.028C91.5963 61.028 97.7061 58.2692 98.3822 57.5252C99.0582 56.7811 98.5491 53.295 97.3472 52.8519Z" fill="white" stroke="#263238" stroke-linecap="round" stroke-linejoin="round"/>
<path d="M95.2689 53.6545C95.2689 53.6545 96.3289 57.9432 96.9382 58.6705L95.2689 53.6545Z" fill="white"/>
<path d="M95.2689 53.6545C95.2689 53.6545 96.3289 57.9432 96.9382 58.6705" stroke="#263238" stroke-linecap="round" stroke-linejoin="round"/>
<path d="M93.2072 54.6326C93.2072 54.6326 93.683 58.1688 94.6929 59.4312L93.2072 54.6326Z" fill="white"/>
<path d="M93.2072 54.6326C93.2072 54.6326 93.683 58.1688 94.6929 59.4312" stroke="#263238" stroke-linecap="round" stroke-linejoin="round"/>
<path d="M91.3376 55.7947C91.2059 57.5247 91.6111 59.2533 92.4978 60.7438L91.3376 55.7947Z" fill="white"/>
<path d="M91.3376 55.7947C91.2059 57.5247 91.6111 59.2533 92.4978 60.7438" stroke="#263238" stroke-linecap="round" stroke-linejoin="round"/>
<path d="M99.6091 66.161C99.6091 66.161 102.255 60.075 102.372 58.637C102.489 57.1991 101.796 54.8165 102.372 53.295C102.948 51.7735 102.28 50.1266 100.928 51.2384C99.5757 52.3503 99.0165 55.895 98.9748 56.2544C98.933 56.6139 96.3205 58.4197 95.8865 61.2704C95.4525 64.1212 96.3706 65.2749 96.3706 65.2749" fill="white"/>
<path d="M99.6091 66.161C99.6091 66.161 102.255 60.075 102.372 58.637C102.489 57.1991 101.796 54.8165 102.372 53.295C102.948 51.7735 102.28 50.1266 100.928 51.2384C99.5757 52.3503 99.0165 55.895 98.9748 56.2544C98.933 56.6139 96.3205 58.4197 95.8865 61.2704C95.4525 64.1212 96.3706 65.2749 96.3706 65.2749" stroke="#263238" stroke-linecap="round" stroke-linejoin="round"/>
<path d="M177.075 160.754C177.075 160.754 184.269 163.522 184.428 164.993C184.587 166.464 184.278 168.93 183.543 168.922C182.809 168.914 176.716 166.155 175.989 165.411C175.263 164.667 175.873 161.189 177.075 160.754Z" fill="white" stroke="#263238" stroke-linecap="round" stroke-linejoin="round"/>
<path d="M179.145 161.557C179.145 161.557 178.093 165.846 177.517 166.573L179.145 161.557Z" fill="white"/>
<path d="M179.145 161.557C179.145 161.557 178.093 165.846 177.517 166.573" stroke="#263238" stroke-linecap="round" stroke-linejoin="round"/>
<path d="M181.206 162.535C181.206 162.535 180.73 166.071 179.72 167.334L181.206 162.535Z" fill="white"/>
<path d="M181.206 162.535C181.206 162.535 180.73 166.071 179.72 167.334" stroke="#263238" stroke-linecap="round" stroke-linejoin="round"/>
<path d="M183.084 163.697C183.218 165.425 182.813 167.151 181.924 168.638L183.084 163.697Z" fill="white"/>
<path d="M183.084 163.697C183.218 165.425 182.813 167.151 181.924 168.638" stroke="#263238" stroke-linecap="round" stroke-linejoin="round"/>
<path d="M174.813 174.064C174.813 174.064 172.167 167.978 172.041 166.54C171.916 165.102 172.617 162.719 172.041 161.198C171.466 159.676 172.142 158.037 173.494 159.141C174.846 160.244 175.405 163.806 175.447 164.157C175.489 164.508 178.101 166.331 178.527 169.173C178.953 172.015 178.043 173.186 178.043 173.186" fill="white"/>
<path d="M174.813 174.064C174.813 174.064 172.167 167.978 172.041 166.54C171.916 165.102 172.617 162.719 172.041 161.198C171.466 159.676 172.142 158.037 173.494 159.141C174.846 160.244 175.405 163.806 175.447 164.157C175.489 164.508 178.101 166.331 178.527 169.173C178.953 172.015 178.043 173.186 178.043 173.186" stroke="#263238" stroke-linecap="round" stroke-linejoin="round"/>
<path d="M114.057 177.591C119.432 172.199 124.14 157.72 122.462 151.993C122.128 150.856 121.82 149.761 121.544 148.741C121.263 148.427 120.965 148.128 120.651 147.847C120.134 147.504 111.136 124.798 111.136 124.798L105.594 102.092C105.594 102.092 105.076 99.8518 104.383 96.7502C100.661 98.5089 96.4922 99.092 92.431 98.4222C92.431 101.256 92.5061 103.564 92.6146 104.868C93.1321 111.104 97.2887 129.48 97.2887 129.48C97.2887 129.48 103.866 159.81 104.041 160.328C104.216 160.846 105.418 172.458 105.418 172.458V180.584C107.305 181.036 110.61 181.036 114.057 177.591Z" fill="#263238" stroke="#263238" stroke-linecap="round" stroke-linejoin="round"/>
</svg>
