<svg width="32" height="24" viewBox="0 0 32 24" fill="none" xmlns="http://www.w3.org/2000/svg">
<path d="M32 4.5585C30.81 4.95 29.542 5.2095 28.22 5.3355C29.58 4.7265 30.618 3.7695 31.106 2.616C29.838 3.183 28.438 3.5835 26.946 3.807C25.742 2.8455 24.026 2.25 22.154 2.25C18.522 2.25 15.598 4.461 15.598 7.1715C15.598 7.5615 15.642 7.9365 15.75 8.2935C10.296 8.094 5.47 6.1335 2.228 3.147C1.662 3.8835 1.33 4.7265 1.33 5.634C1.33 7.338 2.5 8.8485 4.244 9.723C3.19 9.708 2.156 9.4785 1.28 9.117C1.28 9.132 1.28 9.1515 1.28 9.171C1.28 11.562 3.554 13.548 6.536 14.0055C6.002 14.115 5.42 14.1675 4.816 14.1675C4.396 14.1675 3.972 14.1495 3.574 14.0835C4.424 16.032 6.836 17.4645 9.704 17.511C7.472 18.8205 4.638 19.6095 1.57 19.6095C1.032 19.6095 0.516 19.5915 0 19.542C2.906 20.9475 6.35 21.75 10.064 21.75C22.136 21.75 28.736 14.25 28.736 7.749C28.736 7.5315 28.726 7.3215 28.712 7.113C30.014 6.42 31.108 5.5545 32 4.5585Z" fill="#03A9F4"/>
</svg>
